<?xml version="1.0" encoding="utf-8" standalone="no"?>
<!DOCTYPE svg PUBLIC "-//W3C//DTD SVG 1.1//EN"
  "http://www.w3.org/Graphics/SVG/1.1/DTD/svg11.dtd">
<svg xmlns:xlink="http://www.w3.org/1999/xlink" width="720pt" height="288pt" viewBox="0 0 720 288" xmlns="http://www.w3.org/2000/svg" version="1.1">
 <metadata>
  <rdf:RDF xmlns:dc="http://purl.org/dc/elements/1.1/" xmlns:cc="http://creativecommons.org/ns#" xmlns:rdf="http://www.w3.org/1999/02/22-rdf-syntax-ns#">
   <cc:Work>
    <dc:type rdf:resource="http://purl.org/dc/dcmitype/StillImage"/>
    <dc:description>Derived from native frame receipt SHA-256 1d10c43936b155c2128706fee49ec47ed8d9d6b663510efd5a519b9b8ca35430</dc:description>
    <dc:format>image/svg+xml</dc:format>
    <dc:creator>
     <cc:Agent>
      <dc:title>Matplotlib v3.11.1, https://matplotlib.org/</dc:title>
     </cc:Agent>
    </dc:creator>
   </cc:Work>
  </rdf:RDF>
 </metadata>
 <defs>
  <style type="text/css">*{stroke-linejoin: round; stroke-linecap: butt}</style>
 </defs>
 <g id="figure_1">
  <g id="patch_1">
   <path d="M 0 288
L 720 288
L 720 0
L 0 0
z
" style="fill: #ffffff"/>
  </g>
  <g id="axes_1">
   <g id="patch_2">
    <path d="M 54.646334 253.998979
L 360.589844 253.998979
L 360.589844 50.524861
L 54.646334 50.524861
z
" style="fill: #ffffff"/>
   </g>
   <g id="PathCollection_1">
    <defs>
     <path id="md300406518" d="M -3.162278 3.162278
L 3.162278 -3.162278
M -3.162278 -3.162278
L 3.162278 3.162278
" style="stroke: #000000; stroke-width: 1.5"/>
    </defs>
    <g clip-path="url(#p6822e6883e)">
     <use xlink:href="#md300406518" x="120.661198" y="150.576142" style="stroke: #000000; stroke-width: 1.5"/>
    </g>
   </g>
   <g id="matplotlib.axis_1">
    <g id="xtick_1">
     <g id="line2d_1">
      <path d="M 69.787915 253.998979
L 69.787915 50.524861
" clip-path="url(#p6822e6883e)" style="fill: none; stroke: #b0b0b0; stroke-opacity: 0.2; stroke-width: 0.8; stroke-linecap: square"/>
     </g>
     <g id="line2d_2">
      <defs>
       <path id="m67c7283220" d="M 0 0
L 0 3.5
" style="stroke: #000000; stroke-width: 0.8"/>
      </defs>
      <g>
       <use xlink:href="#m67c7283220" x="69.787915" y="253.998979" style="stroke: #000000; stroke-width: 0.8"/>
      </g>
     </g>
     <g id="text_1">
      <!-- −0.5 -->
      <g transform="translate(57.646509 268.596635) scale(0.1 -0.1)">
       <defs>
        <path id="DejaVuSans-c9c" d="M 678 2272
L 4684 2272
L 4684 1741
L 678 1741
L 678 2272
z
" transform="scale(0.015625)"/>
        <path id="DejaVuSans-13" d="M 2034 4250
Q 1547 4250 1301 3770
Q 1056 3291 1056 2328
Q 1056 1369 1301 889
Q 1547 409 2034 409
Q 2525 409 2770 889
Q 3016 1369 3016 2328
Q 3016 3291 2770 3770
Q 2525 4250 2034 4250
z
M 2034 4750
Q 2819 4750 3233 4129
Q 3647 3509 3647 2328
Q 3647 1150 3233 529
Q 2819 -91 2034 -91
Q 1250 -91 836 529
Q 422 1150 422 2328
Q 422 3509 836 4129
Q 1250 4750 2034 4750
z
" transform="scale(0.015625)"/>
        <path id="DejaVuSans-11" d="M 684 794
L 1344 794
L 1344 0
L 684 0
L 684 794
z
" transform="scale(0.015625)"/>
        <path id="DejaVuSans-18" d="M 691 4666
L 3169 4666
L 3169 4134
L 1269 4134
L 1269 2991
Q 1406 3038 1543 3061
Q 1681 3084 1819 3084
Q 2600 3084 3056 2656
Q 3513 2228 3513 1497
Q 3513 744 3044 326
Q 2575 -91 1722 -91
Q 1428 -91 1123 -41
Q 819 9 494 109
L 494 744
Q 775 591 1075 516
Q 1375 441 1709 441
Q 2250 441 2565 725
Q 2881 1009 2881 1497
Q 2881 1984 2565 2268
Q 2250 2553 1709 2553
Q 1456 2553 1204 2497
Q 953 2441 691 2322
L 691 4666
z
" transform="scale(0.015625)"/>
       </defs>
       <use xlink:href="#DejaVuSans-c9c"/>
       <use xlink:href="#DejaVuSans-13" transform="translate(83.796875 0)"/>
       <use xlink:href="#DejaVuSans-11" transform="translate(147.421875 0)"/>
       <use xlink:href="#DejaVuSans-18" transform="translate(179.203125 0)"/>
      </g>
     </g>
    </g>
    <g id="xtick_2">
     <g id="line2d_3">
      <path d="M 120.661198 253.998979
L 120.661198 50.524861
" clip-path="url(#p6822e6883e)" style="fill: none; stroke: #b0b0b0; stroke-opacity: 0.2; stroke-width: 0.8; stroke-linecap: square"/>
     </g>
     <g id="line2d_4">
      <g>
       <use xlink:href="#m67c7283220" x="120.661198" y="253.998979" style="stroke: #000000; stroke-width: 0.8"/>
      </g>
     </g>
     <g id="text_2">
      <!-- 0.0 -->
      <g transform="translate(112.709635 268.596635) scale(0.1 -0.1)">
       <use xlink:href="#DejaVuSans-13"/>
       <use xlink:href="#DejaVuSans-11" transform="translate(63.625 0)"/>
       <use xlink:href="#DejaVuSans-13" transform="translate(95.40625 0)"/>
      </g>
     </g>
    </g>
    <g id="xtick_3">
     <g id="line2d_5">
      <path d="M 171.53448 253.998979
L 171.53448 50.524861
" clip-path="url(#p6822e6883e)" style="fill: none; stroke: #b0b0b0; stroke-opacity: 0.2; stroke-width: 0.8; stroke-linecap: square"/>
     </g>
     <g id="line2d_6">
      <g>
       <use xlink:href="#m67c7283220" x="171.53448" y="253.998979" style="stroke: #000000; stroke-width: 0.8"/>
      </g>
     </g>
     <g id="text_3">
      <!-- 0.5 -->
      <g transform="translate(163.582917 268.596635) scale(0.1 -0.1)">
       <use xlink:href="#DejaVuSans-13"/>
       <use xlink:href="#DejaVuSans-11" transform="translate(63.625 0)"/>
       <use xlink:href="#DejaVuSans-18" transform="translate(95.40625 0)"/>
      </g>
     </g>
    </g>
    <g id="xtick_4">
     <g id="line2d_7">
      <path d="M 222.407762 253.998979
L 222.407762 50.524861
" clip-path="url(#p6822e6883e)" style="fill: none; stroke: #b0b0b0; stroke-opacity: 0.2; stroke-width: 0.8; stroke-linecap: square"/>
     </g>
     <g id="line2d_8">
      <g>
       <use xlink:href="#m67c7283220" x="222.407762" y="253.998979" style="stroke: #000000; stroke-width: 0.8"/>
      </g>
     </g>
     <g id="text_4">
      <!-- 1.0 -->
      <g transform="translate(214.456199 268.596635) scale(0.1 -0.1)">
       <defs>
        <path id="DejaVuSans-14" d="M 794 531
L 1825 531
L 1825 4091
L 703 3866
L 703 4441
L 1819 4666
L 2450 4666
L 2450 531
L 3481 531
L 3481 0
L 794 0
L 794 531
z
" transform="scale(0.015625)"/>
       </defs>
       <use xlink:href="#DejaVuSans-14"/>
       <use xlink:href="#DejaVuSans-11" transform="translate(63.625 0)"/>
       <use xlink:href="#DejaVuSans-13" transform="translate(95.40625 0)"/>
      </g>
     </g>
    </g>
    <g id="xtick_5">
     <g id="line2d_9">
      <path d="M 273.281044 253.998979
L 273.281044 50.524861
" clip-path="url(#p6822e6883e)" style="fill: none; stroke: #b0b0b0; stroke-opacity: 0.2; stroke-width: 0.8; stroke-linecap: square"/>
     </g>
     <g id="line2d_10">
      <g>
       <use xlink:href="#m67c7283220" x="273.281044" y="253.998979" style="stroke: #000000; stroke-width: 0.8"/>
      </g>
     </g>
     <g id="text_5">
      <!-- 1.5 -->
      <g transform="translate(265.329482 268.596635) scale(0.1 -0.1)">
       <use xlink:href="#DejaVuSans-14"/>
       <use xlink:href="#DejaVuSans-11" transform="translate(63.625 0)"/>
       <use xlink:href="#DejaVuSans-18" transform="translate(95.40625 0)"/>
      </g>
     </g>
    </g>
    <g id="xtick_6">
     <g id="line2d_11">
      <path d="M 324.154326 253.998979
L 324.154326 50.524861
" clip-path="url(#p6822e6883e)" style="fill: none; stroke: #b0b0b0; stroke-opacity: 0.2; stroke-width: 0.8; stroke-linecap: square"/>
     </g>
     <g id="line2d_12">
      <g>
       <use xlink:href="#m67c7283220" x="324.154326" y="253.998979" style="stroke: #000000; stroke-width: 0.8"/>
      </g>
     </g>
     <g id="text_6">
      <!-- 2.0 -->
      <g transform="translate(316.202764 268.596635) scale(0.1 -0.1)">
       <defs>
        <path id="DejaVuSans-15" d="M 1228 531
L 3431 531
L 3431 0
L 469 0
L 469 531
Q 828 903 1448 1529
Q 2069 2156 2228 2338
Q 2531 2678 2651 2914
Q 2772 3150 2772 3378
Q 2772 3750 2511 3984
Q 2250 4219 1831 4219
Q 1534 4219 1204 4116
Q 875 4013 500 3803
L 500 4441
Q 881 4594 1212 4672
Q 1544 4750 1819 4750
Q 2544 4750 2975 4387
Q 3406 4025 3406 3419
Q 3406 3131 3298 2873
Q 3191 2616 2906 2266
Q 2828 2175 2409 1742
Q 1991 1309 1228 531
z
" transform="scale(0.015625)"/>
       </defs>
       <use xlink:href="#DejaVuSans-15"/>
       <use xlink:href="#DejaVuSans-11" transform="translate(63.625 0)"/>
       <use xlink:href="#DejaVuSans-13" transform="translate(95.40625 0)"/>
      </g>
     </g>
    </g>
    <g id="text_7">
     <!-- Lateral offset from target (yd) -->
     <g transform="translate(132.847776 282.597416) scale(0.1 -0.1)">
      <defs>
       <path id="DejaVuSans-2f" d="M 628 4666
L 1259 4666
L 1259 531
L 3531 531
L 3531 0
L 628 0
L 628 4666
z
" transform="scale(0.015625)"/>
       <path id="DejaVuSans-44" d="M 2194 1759
Q 1497 1759 1228 1600
Q 959 1441 959 1056
Q 959 750 1161 570
Q 1363 391 1709 391
Q 2188 391 2477 730
Q 2766 1069 2766 1631
L 2766 1759
L 2194 1759
z
M 3341 1997
L 3341 0
L 2766 0
L 2766 531
Q 2569 213 2275 61
Q 1981 -91 1556 -91
Q 1019 -91 701 211
Q 384 513 384 1019
Q 384 1609 779 1909
Q 1175 2209 1959 2209
L 2766 2209
L 2766 2266
Q 2766 2663 2505 2880
Q 2244 3097 1772 3097
Q 1472 3097 1187 3025
Q 903 2953 641 2809
L 641 3341
Q 956 3463 1253 3523
Q 1550 3584 1831 3584
Q 2591 3584 2966 3190
Q 3341 2797 3341 1997
z
" transform="scale(0.015625)"/>
       <path id="DejaVuSans-57" d="M 1172 4494
L 1172 3500
L 2356 3500
L 2356 3053
L 1172 3053
L 1172 1153
Q 1172 725 1289 603
Q 1406 481 1766 481
L 2356 481
L 2356 0
L 1766 0
Q 1100 0 847 248
Q 594 497 594 1153
L 594 3053
L 172 3053
L 172 3500
L 594 3500
L 594 4494
L 1172 4494
z
" transform="scale(0.015625)"/>
       <path id="DejaVuSans-48" d="M 3597 1894
L 3597 1613
L 953 1613
Q 991 1019 1311 708
Q 1631 397 2203 397
Q 2534 397 2845 478
Q 3156 559 3463 722
L 3463 178
Q 3153 47 2828 -22
Q 2503 -91 2169 -91
Q 1331 -91 842 396
Q 353 884 353 1716
Q 353 2575 817 3079
Q 1281 3584 2069 3584
Q 2775 3584 3186 3129
Q 3597 2675 3597 1894
z
M 3022 2063
Q 3016 2534 2758 2815
Q 2500 3097 2075 3097
Q 1594 3097 1305 2825
Q 1016 2553 972 2059
L 3022 2063
z
" transform="scale(0.015625)"/>
       <path id="DejaVuSans-55" d="M 2631 2963
Q 2534 3019 2420 3045
Q 2306 3072 2169 3072
Q 1681 3072 1420 2755
Q 1159 2438 1159 1844
L 1159 0
L 581 0
L 581 3500
L 1159 3500
L 1159 2956
Q 1341 3275 1631 3429
Q 1922 3584 2338 3584
Q 2397 3584 2469 3576
Q 2541 3569 2628 3553
L 2631 2963
z
" transform="scale(0.015625)"/>
       <path id="DejaVuSans-4f" d="M 603 4863
L 1178 4863
L 1178 0
L 603 0
L 603 4863
z
" transform="scale(0.015625)"/>
       <path id="DejaVuSans-3" transform="scale(0.015625)"/>
       <path id="DejaVuSans-52" d="M 1959 3097
Q 1497 3097 1228 2736
Q 959 2375 959 1747
Q 959 1119 1226 758
Q 1494 397 1959 397
Q 2419 397 2687 759
Q 2956 1122 2956 1747
Q 2956 2369 2687 2733
Q 2419 3097 1959 3097
z
M 1959 3584
Q 2709 3584 3137 3096
Q 3566 2609 3566 1747
Q 3566 888 3137 398
Q 2709 -91 1959 -91
Q 1206 -91 779 398
Q 353 888 353 1747
Q 353 2609 779 3096
Q 1206 3584 1959 3584
z
" transform="scale(0.015625)"/>
       <path id="DejaVuSans-13ae" d="M 4531 4863
L 4531 4384
L 3981 4384
Q 3672 4384 3551 4259
Q 3431 4134 3431 3809
L 3431 3500
L 4378 3500
L 4378 3053
L 3431 3053
L 3431 0
L 2853 0
L 2853 3053
L 1275 3053
L 1275 0
L 697 0
L 697 3053
L 147 3053
L 147 3500
L 697 3500
L 697 3744
Q 697 4328 969 4595
Q 1241 4863 1831 4863
L 2375 4863
L 2375 4384
L 1825 4384
Q 1516 4384 1394 4259
Q 1275 4134 1275 3809
L 1275 3500
L 2853 3500
L 2853 3744
Q 2853 4328 3125 4595
Q 3397 4863 3988 4863
L 4531 4863
z
" transform="scale(0.015625)"/>
       <path id="DejaVuSans-56" d="M 2834 3397
L 2834 2853
Q 2591 2978 2328 3040
Q 2066 3103 1784 3103
Q 1356 3103 1142 2972
Q 928 2841 928 2578
Q 928 2378 1081 2264
Q 1234 2150 1697 2047
L 1894 2003
Q 2506 1872 2764 1633
Q 3022 1394 3022 966
Q 3022 478 2636 193
Q 2250 -91 1575 -91
Q 1294 -91 989 -36
Q 684 19 347 128
L 347 722
Q 666 556 975 473
Q 1284 391 1588 391
Q 1994 391 2212 530
Q 2431 669 2431 922
Q 2431 1156 2273 1281
Q 2116 1406 1581 1522
L 1381 1569
Q 847 1681 609 1914
Q 372 2147 372 2553
Q 372 3047 722 3315
Q 1072 3584 1716 3584
Q 2034 3584 2315 3537
Q 2597 3491 2834 3397
z
" transform="scale(0.015625)"/>
       <path id="DejaVuSans-49" d="M 2375 4863
L 2375 4384
L 1825 4384
Q 1516 4384 1395 4259
Q 1275 4134 1275 3809
L 1275 3500
L 2222 3500
L 2222 3053
L 1275 3053
L 1275 0
L 697 0
L 697 3053
L 147 3053
L 147 3500
L 697 3500
L 697 3744
Q 697 4328 969 4595
Q 1241 4863 1831 4863
L 2375 4863
z
" transform="scale(0.015625)"/>
       <path id="DejaVuSans-50" d="M 3328 2828
Q 3544 3216 3844 3400
Q 4144 3584 4550 3584
Q 5097 3584 5394 3201
Q 5691 2819 5691 2113
L 5691 0
L 5113 0
L 5113 2094
Q 5113 2597 4934 2840
Q 4756 3084 4391 3084
Q 3944 3084 3684 2787
Q 3425 2491 3425 1978
L 3425 0
L 2847 0
L 2847 2094
Q 2847 2600 2669 2842
Q 2491 3084 2119 3084
Q 1678 3084 1418 2786
Q 1159 2488 1159 1978
L 1159 0
L 581 0
L 581 3500
L 1159 3500
L 1159 2956
Q 1356 3278 1631 3431
Q 1906 3584 2284 3584
Q 2666 3584 2933 3390
Q 3200 3197 3328 2828
z
" transform="scale(0.015625)"/>
       <path id="DejaVuSans-4a" d="M 2906 1791
Q 2906 2416 2648 2759
Q 2391 3103 1925 3103
Q 1463 3103 1205 2759
Q 947 2416 947 1791
Q 947 1169 1205 825
Q 1463 481 1925 481
Q 2391 481 2648 825
Q 2906 1169 2906 1791
z
M 3481 434
Q 3481 -459 3084 -895
Q 2688 -1331 1869 -1331
Q 1566 -1331 1297 -1286
Q 1028 -1241 775 -1147
L 775 -588
Q 1028 -725 1275 -790
Q 1522 -856 1778 -856
Q 2344 -856 2625 -561
Q 2906 -266 2906 331
L 2906 616
Q 2728 306 2450 153
Q 2172 0 1784 0
Q 1141 0 747 490
Q 353 981 353 1791
Q 353 2603 747 3093
Q 1141 3584 1784 3584
Q 2172 3584 2450 3431
Q 2728 3278 2906 2969
L 2906 3500
L 3481 3500
L 3481 434
z
" transform="scale(0.015625)"/>
       <path id="DejaVuSans-b" d="M 1984 4856
Q 1566 4138 1362 3434
Q 1159 2731 1159 2009
Q 1159 1288 1364 580
Q 1569 -128 1984 -844
L 1484 -844
Q 1016 -109 783 600
Q 550 1309 550 2009
Q 550 2706 781 3412
Q 1013 4119 1484 4856
L 1984 4856
z
" transform="scale(0.015625)"/>
       <path id="DejaVuSans-5c" d="M 2059 -325
Q 1816 -950 1584 -1140
Q 1353 -1331 966 -1331
L 506 -1331
L 506 -850
L 844 -850
Q 1081 -850 1212 -737
Q 1344 -625 1503 -206
L 1606 56
L 191 3500
L 800 3500
L 1894 763
L 2988 3500
L 3597 3500
L 2059 -325
z
" transform="scale(0.015625)"/>
       <path id="DejaVuSans-47" d="M 2906 2969
L 2906 4863
L 3481 4863
L 3481 0
L 2906 0
L 2906 525
Q 2725 213 2448 61
Q 2172 -91 1784 -91
Q 1150 -91 751 415
Q 353 922 353 1747
Q 353 2572 751 3078
Q 1150 3584 1784 3584
Q 2172 3584 2448 3432
Q 2725 3281 2906 2969
z
M 947 1747
Q 947 1113 1208 752
Q 1469 391 1925 391
Q 2381 391 2643 752
Q 2906 1113 2906 1747
Q 2906 2381 2643 2742
Q 2381 3103 1925 3103
Q 1469 3103 1208 2742
Q 947 2381 947 1747
z
" transform="scale(0.015625)"/>
       <path id="DejaVuSans-c" d="M 513 4856
L 1013 4856
Q 1481 4119 1714 3412
Q 1947 2706 1947 2009
Q 1947 1309 1714 600
Q 1481 -109 1013 -844
L 513 -844
Q 928 -128 1133 580
Q 1338 1288 1338 2009
Q 1338 2731 1133 3434
Q 928 4138 513 4856
z
" transform="scale(0.015625)"/>
      </defs>
      <use xlink:href="#DejaVuSans-2f"/>
      <use xlink:href="#DejaVuSans-44" transform="translate(55.71875 0)"/>
      <use xlink:href="#DejaVuSans-57" transform="translate(117 0)"/>
      <use xlink:href="#DejaVuSans-48" transform="translate(156.203125 0)"/>
      <use xlink:href="#DejaVuSans-55" transform="translate(217.734375 0)"/>
      <use xlink:href="#DejaVuSans-44" transform="translate(258.84375 0)"/>
      <use xlink:href="#DejaVuSans-4f" transform="translate(320.125 0)"/>
      <use xlink:href="#DejaVuSans-3" transform="translate(347.90625 0)"/>
      <use xlink:href="#DejaVuSans-52" transform="translate(379.6875 0)"/>
      <use xlink:href="#DejaVuSans-13ae" transform="translate(440.875 0)"/>
      <use xlink:href="#DejaVuSans-56" transform="translate(509.765625 0)"/>
      <use xlink:href="#DejaVuSans-48" transform="translate(561.859375 0)"/>
      <use xlink:href="#DejaVuSans-57" transform="translate(623.390625 0)"/>
      <use xlink:href="#DejaVuSans-3" transform="translate(662.59375 0)"/>
      <use xlink:href="#DejaVuSans-49" transform="translate(694.375 0)"/>
      <use xlink:href="#DejaVuSans-55" transform="translate(729.578125 0)"/>
      <use xlink:href="#DejaVuSans-52" transform="translate(768.484375 0)"/>
      <use xlink:href="#DejaVuSans-50" transform="translate(829.671875 0)"/>
      <use xlink:href="#DejaVuSans-3" transform="translate(927.078125 0)"/>
      <use xlink:href="#DejaVuSans-57" transform="translate(958.859375 0)"/>
      <use xlink:href="#DejaVuSans-44" transform="translate(998.0625 0)"/>
      <use xlink:href="#DejaVuSans-55" transform="translate(1059.34375 0)"/>
      <use xlink:href="#DejaVuSans-4a" transform="translate(1098.703125 0)"/>
      <use xlink:href="#DejaVuSans-48" transform="translate(1162.1875 0)"/>
      <use xlink:href="#DejaVuSans-57" transform="translate(1223.71875 0)"/>
      <use xlink:href="#DejaVuSans-3" transform="translate(1262.921875 0)"/>
      <use xlink:href="#DejaVuSans-b" transform="translate(1294.703125 0)"/>
      <use xlink:href="#DejaVuSans-5c" transform="translate(1333.71875 0)"/>
      <use xlink:href="#DejaVuSans-47" transform="translate(1392.90625 0)"/>
      <use xlink:href="#DejaVuSans-c" transform="translate(1456.390625 0)"/>
     </g>
    </g>
   </g>
   <g id="matplotlib.axis_2">
    <g id="ytick_1">
     <g id="line2d_13">
      <path d="M 54.646334 252.322706
L 360.589844 252.322706
" clip-path="url(#p6822e6883e)" style="fill: none; stroke: #b0b0b0; stroke-opacity: 0.2; stroke-width: 0.8; stroke-linecap: square"/>
     </g>
     <g id="line2d_14">
      <defs>
       <path id="mf4d8bdadae" d="M 0 0
L -3.5 0
" style="stroke: #000000; stroke-width: 0.8"/>
      </defs>
      <g>
       <use xlink:href="#mf4d8bdadae" x="54.646334" y="252.322706" style="stroke: #000000; stroke-width: 0.8"/>
      </g>
     </g>
     <g id="text_8">
      <!-- −1.00 -->
      <g transform="translate(17.001021 256.121534) scale(0.1 -0.1)">
       <use xlink:href="#DejaVuSans-c9c"/>
       <use xlink:href="#DejaVuSans-14" transform="translate(83.796875 0)"/>
       <use xlink:href="#DejaVuSans-11" transform="translate(147.421875 0)"/>
       <use xlink:href="#DejaVuSans-13" transform="translate(179.203125 0)"/>
       <use xlink:href="#DejaVuSans-13" transform="translate(242.828125 0)"/>
      </g>
     </g>
    </g>
    <g id="ytick_2">
     <g id="line2d_15">
      <path d="M 54.646334 226.886065
L 360.589844 226.886065
" clip-path="url(#p6822e6883e)" style="fill: none; stroke: #b0b0b0; stroke-opacity: 0.2; stroke-width: 0.8; stroke-linecap: square"/>
     </g>
     <g id="line2d_16">
      <g>
       <use xlink:href="#mf4d8bdadae" x="54.646334" y="226.886065" style="stroke: #000000; stroke-width: 0.8"/>
      </g>
     </g>
     <g id="text_9">
      <!-- −0.75 -->
      <g transform="translate(17.001021 230.684893) scale(0.1 -0.1)">
       <defs>
        <path id="DejaVuSans-1a" d="M 525 4666
L 3525 4666
L 3525 4397
L 1831 0
L 1172 0
L 2766 4134
L 525 4134
L 525 4666
z
" transform="scale(0.015625)"/>
       </defs>
       <use xlink:href="#DejaVuSans-c9c"/>
       <use xlink:href="#DejaVuSans-13" transform="translate(83.796875 0)"/>
       <use xlink:href="#DejaVuSans-11" transform="translate(147.421875 0)"/>
       <use xlink:href="#DejaVuSans-1a" transform="translate(179.203125 0)"/>
       <use xlink:href="#DejaVuSans-18" transform="translate(242.828125 0)"/>
      </g>
     </g>
    </g>
    <g id="ytick_3">
     <g id="line2d_17">
      <path d="M 54.646334 201.449424
L 360.589844 201.449424
" clip-path="url(#p6822e6883e)" style="fill: none; stroke: #b0b0b0; stroke-opacity: 0.2; stroke-width: 0.8; stroke-linecap: square"/>
     </g>
     <g id="line2d_18">
      <g>
       <use xlink:href="#mf4d8bdadae" x="54.646334" y="201.449424" style="stroke: #000000; stroke-width: 0.8"/>
      </g>
     </g>
     <g id="text_10">
      <!-- −0.50 -->
      <g transform="translate(17.001021 205.248252) scale(0.1 -0.1)">
       <use xlink:href="#DejaVuSans-c9c"/>
       <use xlink:href="#DejaVuSans-13" transform="translate(83.796875 0)"/>
       <use xlink:href="#DejaVuSans-11" transform="translate(147.421875 0)"/>
       <use xlink:href="#DejaVuSans-18" transform="translate(179.203125 0)"/>
       <use xlink:href="#DejaVuSans-13" transform="translate(242.828125 0)"/>
      </g>
     </g>
    </g>
    <g id="ytick_4">
     <g id="line2d_19">
      <path d="M 54.646334 176.012783
L 360.589844 176.012783
" clip-path="url(#p6822e6883e)" style="fill: none; stroke: #b0b0b0; stroke-opacity: 0.2; stroke-width: 0.8; stroke-linecap: square"/>
     </g>
     <g id="line2d_20">
      <g>
       <use xlink:href="#mf4d8bdadae" x="54.646334" y="176.012783" style="stroke: #000000; stroke-width: 0.8"/>
      </g>
     </g>
     <g id="text_11">
      <!-- −0.25 -->
      <g transform="translate(17.001021 179.811611) scale(0.1 -0.1)">
       <use xlink:href="#DejaVuSans-c9c"/>
       <use xlink:href="#DejaVuSans-13" transform="translate(83.796875 0)"/>
       <use xlink:href="#DejaVuSans-11" transform="translate(147.421875 0)"/>
       <use xlink:href="#DejaVuSans-15" transform="translate(179.203125 0)"/>
       <use xlink:href="#DejaVuSans-18" transform="translate(242.828125 0)"/>
      </g>
     </g>
    </g>
    <g id="ytick_5">
     <g id="line2d_21">
      <path d="M 54.646334 150.576142
L 360.589844 150.576142
" clip-path="url(#p6822e6883e)" style="fill: none; stroke: #b0b0b0; stroke-opacity: 0.2; stroke-width: 0.8; stroke-linecap: square"/>
     </g>
     <g id="line2d_22">
      <g>
       <use xlink:href="#mf4d8bdadae" x="54.646334" y="150.576142" style="stroke: #000000; stroke-width: 0.8"/>
      </g>
     </g>
     <g id="text_12">
      <!-- 0.00 -->
      <g transform="translate(25.380709 154.37497) scale(0.1 -0.1)">
       <use xlink:href="#DejaVuSans-13"/>
       <use xlink:href="#DejaVuSans-11" transform="translate(63.625 0)"/>
       <use xlink:href="#DejaVuSans-13" transform="translate(95.40625 0)"/>
       <use xlink:href="#DejaVuSans-13" transform="translate(159.03125 0)"/>
      </g>
     </g>
    </g>
    <g id="ytick_6">
     <g id="line2d_23">
      <path d="M 54.646334 125.139501
L 360.589844 125.139501
" clip-path="url(#p6822e6883e)" style="fill: none; stroke: #b0b0b0; stroke-opacity: 0.2; stroke-width: 0.8; stroke-linecap: square"/>
     </g>
     <g id="line2d_24">
      <g>
       <use xlink:href="#mf4d8bdadae" x="54.646334" y="125.139501" style="stroke: #000000; stroke-width: 0.8"/>
      </g>
     </g>
     <g id="text_13">
      <!-- 0.25 -->
      <g transform="translate(25.380709 128.938329) scale(0.1 -0.1)">
       <use xlink:href="#DejaVuSans-13"/>
       <use xlink:href="#DejaVuSans-11" transform="translate(63.625 0)"/>
       <use xlink:href="#DejaVuSans-15" transform="translate(95.40625 0)"/>
       <use xlink:href="#DejaVuSans-18" transform="translate(159.03125 0)"/>
      </g>
     </g>
    </g>
    <g id="ytick_7">
     <g id="line2d_25">
      <path d="M 54.646334 99.70286
L 360.589844 99.70286
" clip-path="url(#p6822e6883e)" style="fill: none; stroke: #b0b0b0; stroke-opacity: 0.2; stroke-width: 0.8; stroke-linecap: square"/>
     </g>
     <g id="line2d_26">
      <g>
       <use xlink:href="#mf4d8bdadae" x="54.646334" y="99.70286" style="stroke: #000000; stroke-width: 0.8"/>
      </g>
     </g>
     <g id="text_14">
      <!-- 0.50 -->
      <g transform="translate(25.380709 103.501688) scale(0.1 -0.1)">
       <use xlink:href="#DejaVuSans-13"/>
       <use xlink:href="#DejaVuSans-11" transform="translate(63.625 0)"/>
       <use xlink:href="#DejaVuSans-18" transform="translate(95.40625 0)"/>
       <use xlink:href="#DejaVuSans-13" transform="translate(159.03125 0)"/>
      </g>
     </g>
    </g>
    <g id="ytick_8">
     <g id="line2d_27">
      <path d="M 54.646334 74.266218
L 360.589844 74.266218
" clip-path="url(#p6822e6883e)" style="fill: none; stroke: #b0b0b0; stroke-opacity: 0.2; stroke-width: 0.8; stroke-linecap: square"/>
     </g>
     <g id="line2d_28">
      <g>
       <use xlink:href="#mf4d8bdadae" x="54.646334" y="74.266218" style="stroke: #000000; stroke-width: 0.8"/>
      </g>
     </g>
     <g id="text_15">
      <!-- 0.75 -->
      <g transform="translate(25.380709 78.065047) scale(0.1 -0.1)">
       <use xlink:href="#DejaVuSans-13"/>
       <use xlink:href="#DejaVuSans-11" transform="translate(63.625 0)"/>
       <use xlink:href="#DejaVuSans-1a" transform="translate(95.40625 0)"/>
       <use xlink:href="#DejaVuSans-18" transform="translate(159.03125 0)"/>
      </g>
     </g>
    </g>
    <g id="text_16">
     <!-- Longitudinal offset (yd) -->
     <g transform="translate(10.598678 210.42442) rotate(-90) scale(0.1 -0.1)">
      <defs>
       <path id="DejaVuSans-51" d="M 3513 2113
L 3513 0
L 2938 0
L 2938 2094
Q 2938 2591 2744 2837
Q 2550 3084 2163 3084
Q 1697 3084 1428 2787
Q 1159 2491 1159 1978
L 1159 0
L 581 0
L 581 3500
L 1159 3500
L 1159 2956
Q 1366 3272 1645 3428
Q 1925 3584 2291 3584
Q 2894 3584 3203 3211
Q 3513 2838 3513 2113
z
" transform="scale(0.015625)"/>
       <path id="DejaVuSans-4c" d="M 603 3500
L 1178 3500
L 1178 0
L 603 0
L 603 3500
z
M 603 4863
L 1178 4863
L 1178 4134
L 603 4134
L 603 4863
z
" transform="scale(0.015625)"/>
       <path id="DejaVuSans-58" d="M 544 1381
L 544 3500
L 1119 3500
L 1119 1403
Q 1119 906 1312 657
Q 1506 409 1894 409
Q 2359 409 2629 706
Q 2900 1003 2900 1516
L 2900 3500
L 3475 3500
L 3475 0
L 2900 0
L 2900 538
Q 2691 219 2414 64
Q 2138 -91 1772 -91
Q 1169 -91 856 284
Q 544 659 544 1381
z
M 1991 3584
L 1991 3584
z
" transform="scale(0.015625)"/>
      </defs>
      <use xlink:href="#DejaVuSans-2f"/>
      <use xlink:href="#DejaVuSans-52" transform="translate(53.96875 0)"/>
      <use xlink:href="#DejaVuSans-51" transform="translate(115.15625 0)"/>
      <use xlink:href="#DejaVuSans-4a" transform="translate(178.53125 0)"/>
      <use xlink:href="#DejaVuSans-4c" transform="translate(242.015625 0)"/>
      <use xlink:href="#DejaVuSans-57" transform="translate(269.796875 0)"/>
      <use xlink:href="#DejaVuSans-58" transform="translate(309 0)"/>
      <use xlink:href="#DejaVuSans-47" transform="translate(372.375 0)"/>
      <use xlink:href="#DejaVuSans-4c" transform="translate(435.859375 0)"/>
      <use xlink:href="#DejaVuSans-51" transform="translate(463.640625 0)"/>
      <use xlink:href="#DejaVuSans-44" transform="translate(527.015625 0)"/>
      <use xlink:href="#DejaVuSans-4f" transform="translate(588.296875 0)"/>
      <use xlink:href="#DejaVuSans-3" transform="translate(616.078125 0)"/>
      <use xlink:href="#DejaVuSans-52" transform="translate(647.859375 0)"/>
      <use xlink:href="#DejaVuSans-13ae" transform="translate(709.046875 0)"/>
      <use xlink:href="#DejaVuSans-56" transform="translate(777.9375 0)"/>
      <use xlink:href="#DejaVuSans-48" transform="translate(830.03125 0)"/>
      <use xlink:href="#DejaVuSans-57" transform="translate(891.5625 0)"/>
      <use xlink:href="#DejaVuSans-3" transform="translate(930.765625 0)"/>
      <use xlink:href="#DejaVuSans-b" transform="translate(962.546875 0)"/>
      <use xlink:href="#DejaVuSans-5c" transform="translate(1001.5625 0)"/>
      <use xlink:href="#DejaVuSans-47" transform="translate(1060.75 0)"/>
      <use xlink:href="#DejaVuSans-c" transform="translate(1124.234375 0)"/>
     </g>
    </g>
   </g>
   <g id="line2d_29">
    <path d="M 126.289541 174.900868
L 129.410526 182.826102
L 133.289676 190.409183
L 137.889995 197.577712
L 143.16761 204.263368
L 149.168618 210.502553
L 155.643874 216.036376
L 162.621122 220.907352
L 170.050036 225.080165
L 177.850579 228.508362
L 185.948351 231.159479
L 194.263518 233.007437
L 202.586579 234.019366
L 211.105083 234.217812
L 219.602362 233.58444
L 227.997397 232.125225
L 236.21008 229.854159
L 244.273776 226.749915
L 251.886705 222.9289
L 259.090583 218.383507
L 265.816717 213.157201
L 272.000959 207.299697
L 277.584359 200.866955
L 282.513674 193.920371
L 286.692124 186.61316
L 290.180052 178.839239
L 292.893073 170.762148
L 294.805313 162.459036
L 295.898569 154.008957
L 296.165032 145.406341
L 295.597096 136.907635
L 294.202909 128.504961
L 291.995751 120.278321
L 288.996707 112.306225
L 285.23437 104.664602
L 280.744633 97.426392
L 275.610895 90.713842
L 269.799403 84.483079
L 263.407885 78.848878
L 256.497296 73.865027
L 249.133546 69.578933
L 241.338673 66.009473
L 233.285522 63.235567
L 225.000203 61.260336
L 216.561721 60.102663
L 208.050552 59.773684
L 199.547873 60.276389
L 191.134774 61.606022
L 182.923856 63.741531
L 174.92636 66.680334
L 167.253633 70.385216
L 159.978851 74.820859
L 153.171373 79.944885
L 146.881744 85.721842
L 141.200461 92.068061
L 136.149749 98.955152
L 131.721679 106.39466
L 127.916709 114.397861
L 124.744007 122.971002
L 122.217717 132.110143
L 120.359266 141.782279
L 119.208333 151.852123
L 119.071145 160.368622
L 119.765318 168.85782
L 121.309019 177.375678
L 123.638169 185.568632
L 126.711648 193.384253
L 130.588438 200.97168
L 135.186838 208.144827
L 140.462993 214.835237
L 146.366595 220.97907
L 152.815874 226.49605
L 159.797739 231.375312
L 167.222273 235.550298
L 175.018656 238.981211
L 183.112557 241.635317
L 191.562534 243.517504
L 200.017792 244.549671
L 208.447378 244.750155
L 216.945014 244.120858
" clip-path="url(#p6822e6883e)" style="fill: none; stroke: #bd422a; stroke-width: 1.8; stroke-linecap: square"/>
   </g>
   <g id="line2d_30">
    <path d="M 123.466532 151.341948
L 123.466532 151.341948
L 123.466532 151.341948
L 123.466532 151.341948
L 123.466532 151.341948
L 123.466532 151.341948
L 123.466532 151.341948
L 123.466532 151.341948
L 123.466532 151.341948
L 123.466532 151.341948
L 123.466532 151.341948
L 123.466532 151.341948
L 123.466532 151.341948
L 123.466532 151.341948
L 123.466532 151.341948
L 123.466532 151.341948
L 123.466532 151.341948
L 123.466532 151.341948
L 123.466532 151.341948
L 123.466532 151.341948
L 123.466532 151.341948
L 123.466532 151.341948
L 123.466532 151.341948
L 123.466532 151.341948
L 123.466532 151.341948
L 123.466532 151.341948
L 123.466532 151.341948
L 123.466532 151.341948
L 123.466532 151.341948
L 123.466532 151.341948
L 123.466532 151.341948
L 123.466532 151.341948
L 123.466532 151.341948
L 123.466532 151.341948
L 123.466532 151.341948
L 123.466532 151.341948
L 123.466532 151.341948
L 123.466532 151.341948
L 123.466532 151.341948
L 123.466532 151.341948
L 123.466532 151.341948
L 123.466532 151.341948
L 123.466532 151.341948
L 123.466532 151.341948
L 123.466532 151.341948
L 123.466532 151.341948
L 123.466532 151.341948
L 123.466532 151.341948
L 123.466532 151.341948
L 123.466532 151.341948
L 123.466532 151.341948
L 123.466532 151.341948
L 123.466532 151.341948
L 123.466532 151.341948
L 123.466532 151.341948
L 123.466532 151.341948
L 123.466532 151.341948
L 123.466532 151.341948
L 123.466532 151.341948
L 123.466532 151.341948
L 123.466532 151.341948
L 123.466532 151.341948
L 123.466532 151.341948
L 123.466532 151.341948
L 123.466532 151.341948
L 123.466532 151.341948
L 123.466532 151.341948
L 123.466532 151.341948
L 123.466532 151.341948
L 123.466532 151.341948
L 123.466532 151.341948
L 123.466532 151.341948
L 123.466532 151.341948
L 123.466532 151.341948
L 123.466532 151.341948
L 123.466532 151.341948
L 123.466532 151.341948
L 123.466532 151.341948
L 123.466532 151.341948
L 123.466532 151.341948
" clip-path="url(#p6822e6883e)" style="fill: none; stroke: #1667a5; stroke-width: 1.8; stroke-linecap: square"/>
   </g>
   <g id="patch_3">
    <path d="M 54.646334 253.998979
L 54.646334 50.524861
" style="fill: none; stroke: #000000; stroke-width: 0.8; stroke-linejoin: miter; stroke-linecap: square"/>
   </g>
   <g id="patch_4">
    <path d="M 360.589844 253.998979
L 360.589844 50.524861
" style="fill: none; stroke: #000000; stroke-width: 0.8; stroke-linejoin: miter; stroke-linecap: square"/>
   </g>
   <g id="patch_5">
    <path d="M 54.646334 253.998979
L 360.589844 253.998979
" style="fill: none; stroke: #000000; stroke-width: 0.8; stroke-linejoin: miter; stroke-linecap: square"/>
   </g>
   <g id="patch_6">
    <path d="M 54.646334 50.524861
L 360.589844 50.524861
" style="fill: none; stroke: #000000; stroke-width: 0.8; stroke-linejoin: miter; stroke-linecap: square"/>
   </g>
   <g id="text_17">
    <!-- Native position path, frames 100 to 179 -->
    <g transform="translate(87.589964 44.524861) scale(0.12 -0.12)">
     <defs>
      <path id="DejaVuSans-31" d="M 628 4666
L 1478 4666
L 3547 763
L 3547 4666
L 4159 4666
L 4159 0
L 3309 0
L 1241 3903
L 1241 0
L 628 0
L 628 4666
z
" transform="scale(0.015625)"/>
      <path id="DejaVuSans-59" d="M 191 3500
L 800 3500
L 1894 563
L 2988 3500
L 3597 3500
L 2284 0
L 1503 0
L 191 3500
z
" transform="scale(0.015625)"/>
      <path id="DejaVuSans-53" d="M 1159 525
L 1159 -1331
L 581 -1331
L 581 3500
L 1159 3500
L 1159 2969
Q 1341 3281 1617 3432
Q 1894 3584 2278 3584
Q 2916 3584 3314 3078
Q 3713 2572 3713 1747
Q 3713 922 3314 415
Q 2916 -91 2278 -91
Q 1894 -91 1617 61
Q 1341 213 1159 525
z
M 3116 1747
Q 3116 2381 2855 2742
Q 2594 3103 2138 3103
Q 1681 3103 1420 2742
Q 1159 2381 1159 1747
Q 1159 1113 1420 752
Q 1681 391 2138 391
Q 2594 391 2855 752
Q 3116 1113 3116 1747
z
" transform="scale(0.015625)"/>
      <path id="DejaVuSans-4b" d="M 3513 2113
L 3513 0
L 2938 0
L 2938 2094
Q 2938 2591 2744 2837
Q 2550 3084 2163 3084
Q 1697 3084 1428 2787
Q 1159 2491 1159 1978
L 1159 0
L 581 0
L 581 4863
L 1159 4863
L 1159 2956
Q 1366 3272 1645 3428
Q 1925 3584 2291 3584
Q 2894 3584 3203 3211
Q 3513 2838 3513 2113
z
" transform="scale(0.015625)"/>
      <path id="DejaVuSans-f" d="M 750 794
L 1409 794
L 1409 256
L 897 -744
L 494 -744
L 750 256
L 750 794
z
" transform="scale(0.015625)"/>
      <path id="DejaVuSans-1c" d="M 703 97
L 703 672
Q 941 559 1184 500
Q 1428 441 1663 441
Q 2288 441 2617 861
Q 2947 1281 2994 2138
Q 2813 1869 2534 1725
Q 2256 1581 1919 1581
Q 1219 1581 811 2004
Q 403 2428 403 3163
Q 403 3881 828 4315
Q 1253 4750 1959 4750
Q 2769 4750 3195 4129
Q 3622 3509 3622 2328
Q 3622 1225 3098 567
Q 2575 -91 1691 -91
Q 1453 -91 1209 -44
Q 966 3 703 97
z
M 1959 2075
Q 2384 2075 2632 2365
Q 2881 2656 2881 3163
Q 2881 3666 2632 3958
Q 2384 4250 1959 4250
Q 1534 4250 1286 3958
Q 1038 3666 1038 3163
Q 1038 2656 1286 2365
Q 1534 2075 1959 2075
z
" transform="scale(0.015625)"/>
     </defs>
     <use xlink:href="#DejaVuSans-31"/>
     <use xlink:href="#DejaVuSans-44" transform="translate(74.8125 0)"/>
     <use xlink:href="#DejaVuSans-57" transform="translate(136.09375 0)"/>
     <use xlink:href="#DejaVuSans-4c" transform="translate(175.296875 0)"/>
     <use xlink:href="#DejaVuSans-59" transform="translate(203.078125 0)"/>
     <use xlink:href="#DejaVuSans-48" transform="translate(262.265625 0)"/>
     <use xlink:href="#DejaVuSans-3" transform="translate(323.796875 0)"/>
     <use xlink:href="#DejaVuSans-53" transform="translate(355.578125 0)"/>
     <use xlink:href="#DejaVuSans-52" transform="translate(419.0625 0)"/>
     <use xlink:href="#DejaVuSans-56" transform="translate(480.25 0)"/>
     <use xlink:href="#DejaVuSans-4c" transform="translate(532.34375 0)"/>
     <use xlink:href="#DejaVuSans-57" transform="translate(560.125 0)"/>
     <use xlink:href="#DejaVuSans-4c" transform="translate(599.328125 0)"/>
     <use xlink:href="#DejaVuSans-52" transform="translate(627.109375 0)"/>
     <use xlink:href="#DejaVuSans-51" transform="translate(688.296875 0)"/>
     <use xlink:href="#DejaVuSans-3" transform="translate(751.671875 0)"/>
     <use xlink:href="#DejaVuSans-53" transform="translate(783.453125 0)"/>
     <use xlink:href="#DejaVuSans-44" transform="translate(846.9375 0)"/>
     <use xlink:href="#DejaVuSans-57" transform="translate(908.21875 0)"/>
     <use xlink:href="#DejaVuSans-4b" transform="translate(947.421875 0)"/>
     <use xlink:href="#DejaVuSans-f" transform="translate(1010.796875 0)"/>
     <use xlink:href="#DejaVuSans-3" transform="translate(1042.578125 0)"/>
     <use xlink:href="#DejaVuSans-49" transform="translate(1074.359375 0)"/>
     <use xlink:href="#DejaVuSans-55" transform="translate(1109.5625 0)"/>
     <use xlink:href="#DejaVuSans-44" transform="translate(1150.671875 0)"/>
     <use xlink:href="#DejaVuSans-50" transform="translate(1211.953125 0)"/>
     <use xlink:href="#DejaVuSans-48" transform="translate(1309.359375 0)"/>
     <use xlink:href="#DejaVuSans-56" transform="translate(1370.890625 0)"/>
     <use xlink:href="#DejaVuSans-3" transform="translate(1422.984375 0)"/>
     <use xlink:href="#DejaVuSans-14" transform="translate(1454.765625 0)"/>
     <use xlink:href="#DejaVuSans-13" transform="translate(1518.390625 0)"/>
     <use xlink:href="#DejaVuSans-13" transform="translate(1582.015625 0)"/>
     <use xlink:href="#DejaVuSans-3" transform="translate(1645.640625 0)"/>
     <use xlink:href="#DejaVuSans-57" transform="translate(1677.421875 0)"/>
     <use xlink:href="#DejaVuSans-52" transform="translate(1716.625 0)"/>
     <use xlink:href="#DejaVuSans-3" transform="translate(1777.8125 0)"/>
     <use xlink:href="#DejaVuSans-14" transform="translate(1809.59375 0)"/>
     <use xlink:href="#DejaVuSans-1a" transform="translate(1873.21875 0)"/>
     <use xlink:href="#DejaVuSans-1c" transform="translate(1936.84375 0)"/>
    </g>
   </g>
   <g id="PathCollection_2">
    <defs>
     <path id="mc2511b9ccb" d="M 0 2.738613
C 0.726289 2.738613 1.422928 2.450055 1.936492 1.936492
C 2.450055 1.422928 2.738613 0.726289 2.738613 0
C 2.738613 -0.726289 2.450055 -1.422928 1.936492 -1.936492
C 1.422928 -2.450055 0.726289 -2.738613 0 -2.738613
C -0.726289 -2.738613 -1.422928 -2.450055 -1.936492 -1.936492
C -2.450055 -1.422928 -2.738613 -0.726289 -2.738613 0
C -2.738613 0.726289 -2.450055 1.422928 -1.936492 1.936492
C -1.422928 2.450055 -0.726289 2.738613 0 2.738613
z
" style="stroke: #bd422a"/>
    </defs>
    <g clip-path="url(#p6822e6883e)">
     <use xlink:href="#mc2511b9ccb" x="216.945014" y="244.120858" style="fill: #bd422a; stroke: #bd422a"/>
    </g>
   </g>
   <g id="PathCollection_3">
    <defs>
     <path id="m74d7833f44" d="M 0 2.738613
C 0.726289 2.738613 1.422928 2.450055 1.936492 1.936492
C 2.450055 1.422928 2.738613 0.726289 2.738613 0
C 2.738613 -0.726289 2.450055 -1.422928 1.936492 -1.936492
C 1.422928 -2.450055 0.726289 -2.738613 0 -2.738613
C -0.726289 -2.738613 -1.422928 -2.450055 -1.936492 -1.936492
C -2.450055 -1.422928 -2.738613 -0.726289 -2.738613 0
C -2.738613 0.726289 -2.450055 1.422928 -1.936492 1.936492
C -1.422928 2.450055 -0.726289 2.738613 0 2.738613
z
" style="stroke: #1667a5"/>
    </defs>
    <g clip-path="url(#p6822e6883e)">
     <use xlink:href="#m74d7833f44" x="123.466532" y="151.341948" style="fill: #1667a5; stroke: #1667a5"/>
    </g>
   </g>
   <g id="legend_1">
    <g id="patch_7">
     <path d="M 269.253594 249.998979
L 354.989844 249.998979
Q 356.589844 249.998979 356.589844 248.398979
L 356.589844 213.197104
Q 356.589844 211.597104 354.989844 211.597104
L 269.253594 211.597104
Q 267.653594 211.597104 267.653594 213.197104
L 267.653594 248.398979
Q 267.653594 249.998979 269.253594 249.998979
z
" style="fill: #ffffff; opacity: 0.8; stroke: #cccccc; stroke-linejoin: miter"/>
    </g>
    <g id="line2d_31">
     <path d="M 270.853594 218.075854
L 278.853594 218.075854
L 286.853594 218.075854
" style="fill: none; stroke: #bd422a; stroke-width: 1.8; stroke-linecap: square"/>
    </g>
    <g id="text_18">
     <!-- Retail -->
     <g transform="translate(293.253594 220.875854) scale(0.08 -0.08)">
      <defs>
       <path id="DejaVuSans-35" d="M 2841 2188
Q 3044 2119 3236 1894
Q 3428 1669 3622 1275
L 4263 0
L 3584 0
L 2988 1197
Q 2756 1666 2539 1819
Q 2322 1972 1947 1972
L 1259 1972
L 1259 0
L 628 0
L 628 4666
L 2053 4666
Q 2853 4666 3247 4331
Q 3641 3997 3641 3322
Q 3641 2881 3436 2590
Q 3231 2300 2841 2188
z
M 1259 4147
L 1259 2491
L 2053 2491
Q 2509 2491 2742 2702
Q 2975 2913 2975 3322
Q 2975 3731 2742 3939
Q 2509 4147 2053 4147
L 1259 4147
z
" transform="scale(0.015625)"/>
      </defs>
      <use xlink:href="#DejaVuSans-35"/>
      <use xlink:href="#DejaVuSans-48" transform="translate(65 0)"/>
      <use xlink:href="#DejaVuSans-57" transform="translate(126.53125 0)"/>
      <use xlink:href="#DejaVuSans-44" transform="translate(165.734375 0)"/>
      <use xlink:href="#DejaVuSans-4c" transform="translate(227.015625 0)"/>
      <use xlink:href="#DejaVuSans-4f" transform="translate(254.796875 0)"/>
     </g>
    </g>
    <g id="line2d_32">
     <path d="M 270.853594 230.076479
L 278.853594 230.076479
L 286.853594 230.076479
" style="fill: none; stroke: #1667a5; stroke-width: 1.8; stroke-linecap: square"/>
    </g>
    <g id="text_19">
     <!-- Patched -->
     <g transform="translate(293.253594 232.876479) scale(0.08 -0.08)">
      <defs>
       <path id="DejaVuSans-33" d="M 1259 4147
L 1259 2394
L 2053 2394
Q 2494 2394 2734 2622
Q 2975 2850 2975 3272
Q 2975 3691 2734 3919
Q 2494 4147 2053 4147
L 1259 4147
z
M 628 4666
L 2053 4666
Q 2838 4666 3239 4311
Q 3641 3956 3641 3272
Q 3641 2581 3239 2228
Q 2838 1875 2053 1875
L 1259 1875
L 1259 0
L 628 0
L 628 4666
z
" transform="scale(0.015625)"/>
       <path id="DejaVuSans-46" d="M 3122 3366
L 3122 2828
Q 2878 2963 2633 3030
Q 2388 3097 2138 3097
Q 1578 3097 1268 2742
Q 959 2388 959 1747
Q 959 1106 1268 751
Q 1578 397 2138 397
Q 2388 397 2633 464
Q 2878 531 3122 666
L 3122 134
Q 2881 22 2623 -34
Q 2366 -91 2075 -91
Q 1284 -91 818 406
Q 353 903 353 1747
Q 353 2603 823 3093
Q 1294 3584 2113 3584
Q 2378 3584 2631 3529
Q 2884 3475 3122 3366
z
" transform="scale(0.015625)"/>
      </defs>
      <use xlink:href="#DejaVuSans-33"/>
      <use xlink:href="#DejaVuSans-44" transform="translate(55.8125 0)"/>
      <use xlink:href="#DejaVuSans-57" transform="translate(117.09375 0)"/>
      <use xlink:href="#DejaVuSans-46" transform="translate(156.296875 0)"/>
      <use xlink:href="#DejaVuSans-4b" transform="translate(211.28125 0)"/>
      <use xlink:href="#DejaVuSans-48" transform="translate(274.65625 0)"/>
      <use xlink:href="#DejaVuSans-47" transform="translate(336.1875 0)"/>
     </g>
    </g>
    <g id="PathCollection_4">
     <g>
      <use xlink:href="#md300406518" x="278.853594" y="242.777104" style="stroke: #000000; stroke-width: 1.5"/>
     </g>
    </g>
    <g id="text_20">
     <!-- Stopped target -->
     <g transform="translate(293.253594 244.877104) scale(0.08 -0.08)">
      <defs>
       <path id="DejaVuSans-36" d="M 3425 4513
L 3425 3897
Q 3066 4069 2747 4153
Q 2428 4238 2131 4238
Q 1616 4238 1336 4038
Q 1056 3838 1056 3469
Q 1056 3159 1242 3001
Q 1428 2844 1947 2747
L 2328 2669
Q 3034 2534 3370 2195
Q 3706 1856 3706 1288
Q 3706 609 3251 259
Q 2797 -91 1919 -91
Q 1588 -91 1214 -16
Q 841 59 441 206
L 441 856
Q 825 641 1194 531
Q 1563 422 1919 422
Q 2459 422 2753 634
Q 3047 847 3047 1241
Q 3047 1584 2836 1778
Q 2625 1972 2144 2069
L 1759 2144
Q 1053 2284 737 2584
Q 422 2884 422 3419
Q 422 4038 858 4394
Q 1294 4750 2059 4750
Q 2388 4750 2728 4690
Q 3069 4631 3425 4513
z
" transform="scale(0.015625)"/>
      </defs>
      <use xlink:href="#DejaVuSans-36"/>
      <use xlink:href="#DejaVuSans-57" transform="translate(63.484375 0)"/>
      <use xlink:href="#DejaVuSans-52" transform="translate(102.6875 0)"/>
      <use xlink:href="#DejaVuSans-53" transform="translate(163.875 0)"/>
      <use xlink:href="#DejaVuSans-53" transform="translate(227.359375 0)"/>
      <use xlink:href="#DejaVuSans-48" transform="translate(290.84375 0)"/>
      <use xlink:href="#DejaVuSans-47" transform="translate(352.375 0)"/>
      <use xlink:href="#DejaVuSans-3" transform="translate(415.859375 0)"/>
      <use xlink:href="#DejaVuSans-57" transform="translate(447.640625 0)"/>
      <use xlink:href="#DejaVuSans-44" transform="translate(486.84375 0)"/>
      <use xlink:href="#DejaVuSans-55" transform="translate(548.125 0)"/>
      <use xlink:href="#DejaVuSans-4a" transform="translate(587.484375 0)"/>
      <use xlink:href="#DejaVuSans-48" transform="translate(650.96875 0)"/>
      <use xlink:href="#DejaVuSans-57" transform="translate(712.5 0)"/>
     </g>
    </g>
   </g>
  </g>
  <g id="axes_2">
   <g id="patch_8">
    <path d="M 411.05625 253.998979
L 716.99976 253.998979
L 716.99976 50.524861
L 411.05625 50.524861
z
" style="fill: #ffffff"/>
   </g>
   <g id="matplotlib.axis_3">
    <g id="xtick_7">
     <g id="line2d_33">
      <path d="M 424.962773 253.998979
L 424.962773 50.524861
" clip-path="url(#p27e58d3c93)" style="fill: none; stroke: #b0b0b0; stroke-opacity: 0.2; stroke-width: 0.8; stroke-linecap: square"/>
     </g>
     <g id="line2d_34">
      <g>
       <use xlink:href="#m67c7283220" x="424.962773" y="253.998979" style="stroke: #000000; stroke-width: 0.8"/>
      </g>
     </g>
     <g id="text_21">
      <!-- 1.0 -->
      <g transform="translate(417.011211 268.596635) scale(0.1 -0.1)">
       <use xlink:href="#DejaVuSans-14"/>
       <use xlink:href="#DejaVuSans-11" transform="translate(63.625 0)"/>
       <use xlink:href="#DejaVuSans-13" transform="translate(95.40625 0)"/>
      </g>
     </g>
    </g>
    <g id="xtick_8">
     <g id="line2d_35">
      <path d="M 471.576817 253.998979
L 471.576817 50.524861
" clip-path="url(#p27e58d3c93)" style="fill: none; stroke: #b0b0b0; stroke-opacity: 0.2; stroke-width: 0.8; stroke-linecap: square"/>
     </g>
     <g id="line2d_36">
      <g>
       <use xlink:href="#m67c7283220" x="471.576817" y="253.998979" style="stroke: #000000; stroke-width: 0.8"/>
      </g>
     </g>
     <g id="text_22">
      <!-- 1.5 -->
      <g transform="translate(463.625255 268.596635) scale(0.1 -0.1)">
       <use xlink:href="#DejaVuSans-14"/>
       <use xlink:href="#DejaVuSans-11" transform="translate(63.625 0)"/>
       <use xlink:href="#DejaVuSans-18" transform="translate(95.40625 0)"/>
      </g>
     </g>
    </g>
    <g id="xtick_9">
     <g id="line2d_37">
      <path d="M 518.190862 253.998979
L 518.190862 50.524861
" clip-path="url(#p27e58d3c93)" style="fill: none; stroke: #b0b0b0; stroke-opacity: 0.2; stroke-width: 0.8; stroke-linecap: square"/>
     </g>
     <g id="line2d_38">
      <g>
       <use xlink:href="#m67c7283220" x="518.190862" y="253.998979" style="stroke: #000000; stroke-width: 0.8"/>
      </g>
     </g>
     <g id="text_23">
      <!-- 2.0 -->
      <g transform="translate(510.239299 268.596635) scale(0.1 -0.1)">
       <use xlink:href="#DejaVuSans-15"/>
       <use xlink:href="#DejaVuSans-11" transform="translate(63.625 0)"/>
       <use xlink:href="#DejaVuSans-13" transform="translate(95.40625 0)"/>
      </g>
     </g>
    </g>
    <g id="xtick_10">
     <g id="line2d_39">
      <path d="M 564.804906 253.998979
L 564.804906 50.524861
" clip-path="url(#p27e58d3c93)" style="fill: none; stroke: #b0b0b0; stroke-opacity: 0.2; stroke-width: 0.8; stroke-linecap: square"/>
     </g>
     <g id="line2d_40">
      <g>
       <use xlink:href="#m67c7283220" x="564.804906" y="253.998979" style="stroke: #000000; stroke-width: 0.8"/>
      </g>
     </g>
     <g id="text_24">
      <!-- 2.5 -->
      <g transform="translate(556.853343 268.596635) scale(0.1 -0.1)">
       <use xlink:href="#DejaVuSans-15"/>
       <use xlink:href="#DejaVuSans-11" transform="translate(63.625 0)"/>
       <use xlink:href="#DejaVuSans-18" transform="translate(95.40625 0)"/>
      </g>
     </g>
    </g>
    <g id="xtick_11">
     <g id="line2d_41">
      <path d="M 611.41895 253.998979
L 611.41895 50.524861
" clip-path="url(#p27e58d3c93)" style="fill: none; stroke: #b0b0b0; stroke-opacity: 0.2; stroke-width: 0.8; stroke-linecap: square"/>
     </g>
     <g id="line2d_42">
      <g>
       <use xlink:href="#m67c7283220" x="611.41895" y="253.998979" style="stroke: #000000; stroke-width: 0.8"/>
      </g>
     </g>
     <g id="text_25">
      <!-- 3.0 -->
      <g transform="translate(603.467387 268.596635) scale(0.1 -0.1)">
       <defs>
        <path id="DejaVuSans-16" d="M 2597 2516
Q 3050 2419 3304 2112
Q 3559 1806 3559 1356
Q 3559 666 3084 287
Q 2609 -91 1734 -91
Q 1441 -91 1130 -33
Q 819 25 488 141
L 488 750
Q 750 597 1062 519
Q 1375 441 1716 441
Q 2309 441 2620 675
Q 2931 909 2931 1356
Q 2931 1769 2642 2001
Q 2353 2234 1838 2234
L 1294 2234
L 1294 2753
L 1863 2753
Q 2328 2753 2575 2939
Q 2822 3125 2822 3475
Q 2822 3834 2567 4026
Q 2313 4219 1838 4219
Q 1578 4219 1281 4162
Q 984 4106 628 3988
L 628 4550
Q 988 4650 1302 4700
Q 1616 4750 1894 4750
Q 2613 4750 3031 4423
Q 3450 4097 3450 3541
Q 3450 3153 3228 2886
Q 3006 2619 2597 2516
z
" transform="scale(0.015625)"/>
       </defs>
       <use xlink:href="#DejaVuSans-16"/>
       <use xlink:href="#DejaVuSans-11" transform="translate(63.625 0)"/>
       <use xlink:href="#DejaVuSans-13" transform="translate(95.40625 0)"/>
      </g>
     </g>
    </g>
    <g id="xtick_12">
     <g id="line2d_43">
      <path d="M 658.032994 253.998979
L 658.032994 50.524861
" clip-path="url(#p27e58d3c93)" style="fill: none; stroke: #b0b0b0; stroke-opacity: 0.2; stroke-width: 0.8; stroke-linecap: square"/>
     </g>
     <g id="line2d_44">
      <g>
       <use xlink:href="#m67c7283220" x="658.032994" y="253.998979" style="stroke: #000000; stroke-width: 0.8"/>
      </g>
     </g>
     <g id="text_26">
      <!-- 3.5 -->
      <g transform="translate(650.081432 268.596635) scale(0.1 -0.1)">
       <use xlink:href="#DejaVuSans-16"/>
       <use xlink:href="#DejaVuSans-11" transform="translate(63.625 0)"/>
       <use xlink:href="#DejaVuSans-18" transform="translate(95.40625 0)"/>
      </g>
     </g>
    </g>
    <g id="xtick_13">
     <g id="line2d_45">
      <path d="M 704.647038 253.998979
L 704.647038 50.524861
" clip-path="url(#p27e58d3c93)" style="fill: none; stroke: #b0b0b0; stroke-opacity: 0.2; stroke-width: 0.8; stroke-linecap: square"/>
     </g>
     <g id="line2d_46">
      <g>
       <use xlink:href="#m67c7283220" x="704.647038" y="253.998979" style="stroke: #000000; stroke-width: 0.8"/>
      </g>
     </g>
     <g id="text_27">
      <!-- 4.0 -->
      <g transform="translate(696.695476 268.596635) scale(0.1 -0.1)">
       <defs>
        <path id="DejaVuSans-17" d="M 2419 4116
L 825 1625
L 2419 1625
L 2419 4116
z
M 2253 4666
L 3047 4666
L 3047 1625
L 3713 1625
L 3713 1100
L 3047 1100
L 3047 0
L 2419 0
L 2419 1100
L 313 1100
L 313 1709
L 2253 4666
z
" transform="scale(0.015625)"/>
       </defs>
       <use xlink:href="#DejaVuSans-17"/>
       <use xlink:href="#DejaVuSans-11" transform="translate(63.625 0)"/>
       <use xlink:href="#DejaVuSans-13" transform="translate(95.40625 0)"/>
      </g>
     </g>
    </g>
    <g id="text_28">
     <!-- Time (s) -->
     <g transform="translate(543.696755 282.597416) scale(0.1 -0.1)">
      <defs>
       <path id="DejaVuSans-37" d="M -19 4666
L 3928 4666
L 3928 4134
L 2272 4134
L 2272 0
L 1638 0
L 1638 4134
L -19 4134
L -19 4666
z
" transform="scale(0.015625)"/>
      </defs>
      <use xlink:href="#DejaVuSans-37"/>
      <use xlink:href="#DejaVuSans-4c" transform="translate(58 0)"/>
      <use xlink:href="#DejaVuSans-50" transform="translate(85.78125 0)"/>
      <use xlink:href="#DejaVuSans-48" transform="translate(183.1875 0)"/>
      <use xlink:href="#DejaVuSans-3" transform="translate(244.71875 0)"/>
      <use xlink:href="#DejaVuSans-b" transform="translate(276.5 0)"/>
      <use xlink:href="#DejaVuSans-56" transform="translate(315.515625 0)"/>
      <use xlink:href="#DejaVuSans-c" transform="translate(367.609375 0)"/>
     </g>
    </g>
   </g>
   <g id="matplotlib.axis_4">
    <g id="ytick_9">
     <g id="line2d_47">
      <path d="M 411.05625 246.809956
L 716.99976 246.809956
" clip-path="url(#p27e58d3c93)" style="fill: none; stroke: #b0b0b0; stroke-opacity: 0.2; stroke-width: 0.8; stroke-linecap: square"/>
     </g>
     <g id="line2d_48">
      <g>
       <use xlink:href="#mf4d8bdadae" x="411.05625" y="246.809956" style="stroke: #000000; stroke-width: 0.8"/>
      </g>
     </g>
     <g id="text_29">
      <!-- 0.00 -->
      <g transform="translate(381.790625 250.608784) scale(0.1 -0.1)">
       <use xlink:href="#DejaVuSans-13"/>
       <use xlink:href="#DejaVuSans-11" transform="translate(63.625 0)"/>
       <use xlink:href="#DejaVuSans-13" transform="translate(95.40625 0)"/>
       <use xlink:href="#DejaVuSans-13" transform="translate(159.03125 0)"/>
      </g>
     </g>
    </g>
    <g id="ytick_10">
     <g id="line2d_49">
      <path d="M 411.05625 219.713615
L 716.99976 219.713615
" clip-path="url(#p27e58d3c93)" style="fill: none; stroke: #b0b0b0; stroke-opacity: 0.2; stroke-width: 0.8; stroke-linecap: square"/>
     </g>
     <g id="line2d_50">
      <g>
       <use xlink:href="#mf4d8bdadae" x="411.05625" y="219.713615" style="stroke: #000000; stroke-width: 0.8"/>
      </g>
     </g>
     <g id="text_30">
      <!-- 0.25 -->
      <g transform="translate(381.790625 223.512443) scale(0.1 -0.1)">
       <use xlink:href="#DejaVuSans-13"/>
       <use xlink:href="#DejaVuSans-11" transform="translate(63.625 0)"/>
       <use xlink:href="#DejaVuSans-15" transform="translate(95.40625 0)"/>
       <use xlink:href="#DejaVuSans-18" transform="translate(159.03125 0)"/>
      </g>
     </g>
    </g>
    <g id="ytick_11">
     <g id="line2d_51">
      <path d="M 411.05625 192.617274
L 716.99976 192.617274
" clip-path="url(#p27e58d3c93)" style="fill: none; stroke: #b0b0b0; stroke-opacity: 0.2; stroke-width: 0.8; stroke-linecap: square"/>
     </g>
     <g id="line2d_52">
      <g>
       <use xlink:href="#mf4d8bdadae" x="411.05625" y="192.617274" style="stroke: #000000; stroke-width: 0.8"/>
      </g>
     </g>
     <g id="text_31">
      <!-- 0.50 -->
      <g transform="translate(381.790625 196.416102) scale(0.1 -0.1)">
       <use xlink:href="#DejaVuSans-13"/>
       <use xlink:href="#DejaVuSans-11" transform="translate(63.625 0)"/>
       <use xlink:href="#DejaVuSans-18" transform="translate(95.40625 0)"/>
       <use xlink:href="#DejaVuSans-13" transform="translate(159.03125 0)"/>
      </g>
     </g>
    </g>
    <g id="ytick_12">
     <g id="line2d_53">
      <path d="M 411.05625 165.520933
L 716.99976 165.520933
" clip-path="url(#p27e58d3c93)" style="fill: none; stroke: #b0b0b0; stroke-opacity: 0.2; stroke-width: 0.8; stroke-linecap: square"/>
     </g>
     <g id="line2d_54">
      <g>
       <use xlink:href="#mf4d8bdadae" x="411.05625" y="165.520933" style="stroke: #000000; stroke-width: 0.8"/>
      </g>
     </g>
     <g id="text_32">
      <!-- 0.75 -->
      <g transform="translate(381.790625 169.319761) scale(0.1 -0.1)">
       <use xlink:href="#DejaVuSans-13"/>
       <use xlink:href="#DejaVuSans-11" transform="translate(63.625 0)"/>
       <use xlink:href="#DejaVuSans-1a" transform="translate(95.40625 0)"/>
       <use xlink:href="#DejaVuSans-18" transform="translate(159.03125 0)"/>
      </g>
     </g>
    </g>
    <g id="ytick_13">
     <g id="line2d_55">
      <path d="M 411.05625 138.424592
L 716.99976 138.424592
" clip-path="url(#p27e58d3c93)" style="fill: none; stroke: #b0b0b0; stroke-opacity: 0.2; stroke-width: 0.8; stroke-linecap: square"/>
     </g>
     <g id="line2d_56">
      <g>
       <use xlink:href="#mf4d8bdadae" x="411.05625" y="138.424592" style="stroke: #000000; stroke-width: 0.8"/>
      </g>
     </g>
     <g id="text_33">
      <!-- 1.00 -->
      <g transform="translate(381.790625 142.22342) scale(0.1 -0.1)">
       <use xlink:href="#DejaVuSans-14"/>
       <use xlink:href="#DejaVuSans-11" transform="translate(63.625 0)"/>
       <use xlink:href="#DejaVuSans-13" transform="translate(95.40625 0)"/>
       <use xlink:href="#DejaVuSans-13" transform="translate(159.03125 0)"/>
      </g>
     </g>
    </g>
    <g id="ytick_14">
     <g id="line2d_57">
      <path d="M 411.05625 111.328251
L 716.99976 111.328251
" clip-path="url(#p27e58d3c93)" style="fill: none; stroke: #b0b0b0; stroke-opacity: 0.2; stroke-width: 0.8; stroke-linecap: square"/>
     </g>
     <g id="line2d_58">
      <g>
       <use xlink:href="#mf4d8bdadae" x="411.05625" y="111.328251" style="stroke: #000000; stroke-width: 0.8"/>
      </g>
     </g>
     <g id="text_34">
      <!-- 1.25 -->
      <g transform="translate(381.790625 115.127079) scale(0.1 -0.1)">
       <use xlink:href="#DejaVuSans-14"/>
       <use xlink:href="#DejaVuSans-11" transform="translate(63.625 0)"/>
       <use xlink:href="#DejaVuSans-15" transform="translate(95.40625 0)"/>
       <use xlink:href="#DejaVuSans-18" transform="translate(159.03125 0)"/>
      </g>
     </g>
    </g>
    <g id="ytick_15">
     <g id="line2d_59">
      <path d="M 411.05625 84.23191
L 716.99976 84.23191
" clip-path="url(#p27e58d3c93)" style="fill: none; stroke: #b0b0b0; stroke-opacity: 0.2; stroke-width: 0.8; stroke-linecap: square"/>
     </g>
     <g id="line2d_60">
      <g>
       <use xlink:href="#mf4d8bdadae" x="411.05625" y="84.23191" style="stroke: #000000; stroke-width: 0.8"/>
      </g>
     </g>
     <g id="text_35">
      <!-- 1.50 -->
      <g transform="translate(381.790625 88.030738) scale(0.1 -0.1)">
       <use xlink:href="#DejaVuSans-14"/>
       <use xlink:href="#DejaVuSans-11" transform="translate(63.625 0)"/>
       <use xlink:href="#DejaVuSans-18" transform="translate(95.40625 0)"/>
       <use xlink:href="#DejaVuSans-13" transform="translate(159.03125 0)"/>
      </g>
     </g>
    </g>
    <g id="ytick_16">
     <g id="line2d_61">
      <path d="M 411.05625 57.135568
L 716.99976 57.135568
" clip-path="url(#p27e58d3c93)" style="fill: none; stroke: #b0b0b0; stroke-opacity: 0.2; stroke-width: 0.8; stroke-linecap: square"/>
     </g>
     <g id="line2d_62">
      <g>
       <use xlink:href="#mf4d8bdadae" x="411.05625" y="57.135568" style="stroke: #000000; stroke-width: 0.8"/>
      </g>
     </g>
     <g id="text_36">
      <!-- 1.75 -->
      <g transform="translate(381.790625 60.934397) scale(0.1 -0.1)">
       <use xlink:href="#DejaVuSans-14"/>
       <use xlink:href="#DejaVuSans-11" transform="translate(63.625 0)"/>
       <use xlink:href="#DejaVuSans-1a" transform="translate(95.40625 0)"/>
       <use xlink:href="#DejaVuSans-18" transform="translate(159.03125 0)"/>
      </g>
     </g>
    </g>
    <g id="text_37">
     <!-- Distance to target (yd) -->
     <g transform="translate(375.388281 209.14942) rotate(-90) scale(0.1 -0.1)">
      <defs>
       <path id="DejaVuSans-27" d="M 1259 4147
L 1259 519
L 2022 519
Q 2988 519 3436 956
Q 3884 1394 3884 2338
Q 3884 3275 3436 3711
Q 2988 4147 2022 4147
L 1259 4147
z
M 628 4666
L 1925 4666
Q 3281 4666 3915 4102
Q 4550 3538 4550 2338
Q 4550 1131 3912 565
Q 3275 0 1925 0
L 628 0
L 628 4666
z
" transform="scale(0.015625)"/>
      </defs>
      <use xlink:href="#DejaVuSans-27"/>
      <use xlink:href="#DejaVuSans-4c" transform="translate(77 0)"/>
      <use xlink:href="#DejaVuSans-56" transform="translate(104.78125 0)"/>
      <use xlink:href="#DejaVuSans-57" transform="translate(156.875 0)"/>
      <use xlink:href="#DejaVuSans-44" transform="translate(196.078125 0)"/>
      <use xlink:href="#DejaVuSans-51" transform="translate(257.359375 0)"/>
      <use xlink:href="#DejaVuSans-46" transform="translate(320.734375 0)"/>
      <use xlink:href="#DejaVuSans-48" transform="translate(375.71875 0)"/>
      <use xlink:href="#DejaVuSans-3" transform="translate(437.25 0)"/>
      <use xlink:href="#DejaVuSans-57" transform="translate(469.03125 0)"/>
      <use xlink:href="#DejaVuSans-52" transform="translate(508.234375 0)"/>
      <use xlink:href="#DejaVuSans-3" transform="translate(569.421875 0)"/>
      <use xlink:href="#DejaVuSans-57" transform="translate(601.203125 0)"/>
      <use xlink:href="#DejaVuSans-44" transform="translate(640.40625 0)"/>
      <use xlink:href="#DejaVuSans-55" transform="translate(701.6875 0)"/>
      <use xlink:href="#DejaVuSans-4a" transform="translate(741.046875 0)"/>
      <use xlink:href="#DejaVuSans-48" transform="translate(804.53125 0)"/>
      <use xlink:href="#DejaVuSans-57" transform="translate(866.0625 0)"/>
      <use xlink:href="#DejaVuSans-3" transform="translate(905.265625 0)"/>
      <use xlink:href="#DejaVuSans-b" transform="translate(937.046875 0)"/>
      <use xlink:href="#DejaVuSans-5c" transform="translate(976.0625 0)"/>
      <use xlink:href="#DejaVuSans-47" transform="translate(1035.25 0)"/>
      <use xlink:href="#DejaVuSans-c" transform="translate(1098.734375 0)"/>
     </g>
    </g>
   </g>
   <g id="line2d_63">
    <path d="M 424.962773 135.456926
L 426.516575 152.562788
L 428.070376 166.953768
L 429.624178 179.755368
L 431.177979 189.889633
L 432.731781 196.449862
L 434.285582 198.50978
L 435.839383 196.064162
L 437.393185 190.192
L 438.946986 182.266362
L 446.715994 137.69913
L 448.269795 129.936899
L 449.823597 122.750268
L 451.377398 116.219224
L 452.9312 110.354475
L 454.485001 105.149869
L 456.038803 100.5843
L 457.592604 96.62174
L 459.146406 93.134979
L 460.700207 90.347399
L 462.254009 88.280128
L 463.80781 86.513853
L 466.915413 105.650622
L 470.023016 126.777604
L 473.130619 150.613166
L 474.68442 163.417993
L 477.792023 192.399353
L 482.453428 239.387274
L 484.007229 238.226833
L 491.776237 193.483883
L 496.437641 167.745631
L 499.545244 151.590174
L 502.652847 136.331389
L 505.76045 122.241739
L 508.868053 109.233088
L 511.975656 97.536199
L 513.529457 92.137822
L 515.083259 87.182368
L 516.63706 82.607752
L 518.190862 78.424832
L 519.744663 74.643652
L 521.298464 71.273166
L 522.852266 68.321408
L 524.406067 65.827623
L 525.959869 63.737653
L 527.51367 62.084416
L 529.067472 60.871845
L 530.621273 60.102813
L 532.175075 59.773684
L 533.728876 59.891805
L 535.282678 60.455831
L 536.836479 61.464428
L 538.390281 62.915159
L 539.944082 64.804549
L 541.497884 67.128089
L 543.051685 69.860354
L 544.605487 73.038923
L 546.159288 76.632008
L 547.71309 80.631068
L 549.266891 85.026491
L 552.374494 94.988273
L 555.482097 106.365284
L 558.5897 119.081596
L 561.697303 132.988336
L 564.804906 148.014616
L 567.912509 163.982622
L 572.573913 189.39888
L 575.681516 207.503728
L 578.789119 227.069324
L 580.34292 237.436788
L 581.896722 244.750155
L 585.004325 227.312058
L 589.665729 200.755456
L 594.327134 175.181665
L 597.434737 158.981821
L 600.54234 143.593263
L 603.649943 129.188271
L 606.757546 115.786598
L 609.865148 103.807799
L 612.972751 93.129772
L 614.526553 88.334467
L 616.080354 83.953431
L 617.634156 79.929125
L 619.187957 76.302908
L 620.741759 73.083495
L 622.29556 70.278488
L 623.849362 67.852095
L 625.403163 65.888085
L 626.956965 64.366479
L 628.510766 63.271551
L 630.064568 62.614456
L 631.618369 62.396743
L 633.172171 62.618949
L 634.725972 63.275334
L 636.279773 64.379708
L 637.833575 65.919231
L 639.387376 67.890258
L 640.941178 70.288099
L 642.494979 73.149518
L 644.048781 76.375779
L 645.602582 80.000825
L 647.156384 84.033724
L 648.710185 88.454877
L 650.263987 93.25375
L 653.37159 103.854257
L 656.479193 115.908967
L 659.586796 129.215854
L 662.694399 143.743243
L 665.802001 159.139913
L 670.463406 183.752378
L 673.571009 200.896959
L 676.678612 219.12708
L 679.786215 238.20163
L 681.340016 243.496683
L 682.893818 235.856052
L 692.216627 183.867917
L 696.878031 159.478182
L 699.985634 144.221753
L 703.093237 129.941137
L 703.093237 129.941137
" clip-path="url(#p27e58d3c93)" style="fill: none; stroke: #bd422a; stroke-width: 1.5; stroke-linecap: square"/>
   </g>
   <g id="line2d_64">
    <path d="M 424.962773 156.037896
L 426.516575 156.001748
L 428.070376 156.413016
L 429.624178 157.30413
L 431.177979 158.800125
L 432.731781 160.626215
L 434.285582 163.018022
L 435.839383 166.426789
L 438.946986 174.747249
L 442.054589 183.839924
L 460.700207 239.404946
L 462.254009 243.367275
L 463.80781 243.712233
L 703.093237 243.712233
L 703.093237 243.712233
" clip-path="url(#p27e58d3c93)" style="fill: none; stroke: #1667a5; stroke-width: 1.5; stroke-linecap: square"/>
   </g>
   <g id="line2d_65">
    <path d="M 463.80781 253.998979
L 463.80781 50.524861
" clip-path="url(#p27e58d3c93)" style="fill: none; stroke-dasharray: 1,1.65; stroke-dashoffset: 0; stroke: #777777"/>
   </g>
   <g id="patch_9">
    <path d="M 411.05625 253.998979
L 411.05625 50.524861
" style="fill: none; stroke: #000000; stroke-width: 0.8; stroke-linejoin: miter; stroke-linecap: square"/>
   </g>
   <g id="patch_10">
    <path d="M 716.99976 253.998979
L 716.99976 50.524861
" style="fill: none; stroke: #000000; stroke-width: 0.8; stroke-linejoin: miter; stroke-linecap: square"/>
   </g>
   <g id="patch_11">
    <path d="M 411.05625 253.998979
L 716.99976 253.998979
" style="fill: none; stroke: #000000; stroke-width: 0.8; stroke-linejoin: miter; stroke-linecap: square"/>
   </g>
   <g id="patch_12">
    <path d="M 411.05625 50.524861
L 716.99976 50.524861
" style="fill: none; stroke: #000000; stroke-width: 0.8; stroke-linejoin: miter; stroke-linecap: square"/>
   </g>
   <g id="text_38">
    <!-- Cutback at 1.0 s; target stops at 1.42 s -->
    <g transform="translate(446.60988 44.524861) scale(0.12 -0.12)">
     <defs>
      <path id="DejaVuSans-26" d="M 4122 4306
L 4122 3641
Q 3803 3938 3442 4084
Q 3081 4231 2675 4231
Q 1875 4231 1450 3742
Q 1025 3253 1025 2328
Q 1025 1406 1450 917
Q 1875 428 2675 428
Q 3081 428 3442 575
Q 3803 722 4122 1019
L 4122 359
Q 3791 134 3420 21
Q 3050 -91 2638 -91
Q 1578 -91 968 557
Q 359 1206 359 2328
Q 359 3453 968 4101
Q 1578 4750 2638 4750
Q 3056 4750 3426 4639
Q 3797 4528 4122 4306
z
" transform="scale(0.015625)"/>
      <path id="DejaVuSans-45" d="M 3116 1747
Q 3116 2381 2855 2742
Q 2594 3103 2138 3103
Q 1681 3103 1420 2742
Q 1159 2381 1159 1747
Q 1159 1113 1420 752
Q 1681 391 2138 391
Q 2594 391 2855 752
Q 3116 1113 3116 1747
z
M 1159 2969
Q 1341 3281 1617 3432
Q 1894 3584 2278 3584
Q 2916 3584 3314 3078
Q 3713 2572 3713 1747
Q 3713 922 3314 415
Q 2916 -91 2278 -91
Q 1894 -91 1617 61
Q 1341 213 1159 525
L 1159 0
L 581 0
L 581 4863
L 1159 4863
L 1159 2969
z
" transform="scale(0.015625)"/>
      <path id="DejaVuSans-4e" d="M 581 4863
L 1159 4863
L 1159 1991
L 2875 3500
L 3609 3500
L 1753 1863
L 3688 0
L 2938 0
L 1159 1709
L 1159 0
L 581 0
L 581 4863
z
" transform="scale(0.015625)"/>
      <path id="DejaVuSans-1e" d="M 750 3309
L 1409 3309
L 1409 2516
L 750 2516
L 750 3309
z
M 750 794
L 1409 794
L 1409 256
L 897 -744
L 494 -744
L 750 256
L 750 794
z
" transform="scale(0.015625)"/>
     </defs>
     <use xlink:href="#DejaVuSans-26"/>
     <use xlink:href="#DejaVuSans-58" transform="translate(69.828125 0)"/>
     <use xlink:href="#DejaVuSans-57" transform="translate(133.203125 0)"/>
     <use xlink:href="#DejaVuSans-45" transform="translate(172.40625 0)"/>
     <use xlink:href="#DejaVuSans-44" transform="translate(235.890625 0)"/>
     <use xlink:href="#DejaVuSans-46" transform="translate(297.171875 0)"/>
     <use xlink:href="#DejaVuSans-4e" transform="translate(352.15625 0)"/>
     <use xlink:href="#DejaVuSans-3" transform="translate(410.0625 0)"/>
     <use xlink:href="#DejaVuSans-44" transform="translate(441.84375 0)"/>
     <use xlink:href="#DejaVuSans-57" transform="translate(503.125 0)"/>
     <use xlink:href="#DejaVuSans-3" transform="translate(542.328125 0)"/>
     <use xlink:href="#DejaVuSans-14" transform="translate(574.109375 0)"/>
     <use xlink:href="#DejaVuSans-11" transform="translate(637.734375 0)"/>
     <use xlink:href="#DejaVuSans-13" transform="translate(669.515625 0)"/>
     <use xlink:href="#DejaVuSans-3" transform="translate(733.140625 0)"/>
     <use xlink:href="#DejaVuSans-56" transform="translate(764.921875 0)"/>
     <use xlink:href="#DejaVuSans-1e" transform="translate(817.015625 0)"/>
     <use xlink:href="#DejaVuSans-3" transform="translate(850.703125 0)"/>
     <use xlink:href="#DejaVuSans-57" transform="translate(882.484375 0)"/>
     <use xlink:href="#DejaVuSans-44" transform="translate(921.6875 0)"/>
     <use xlink:href="#DejaVuSans-55" transform="translate(982.96875 0)"/>
     <use xlink:href="#DejaVuSans-4a" transform="translate(1022.328125 0)"/>
     <use xlink:href="#DejaVuSans-48" transform="translate(1085.8125 0)"/>
     <use xlink:href="#DejaVuSans-57" transform="translate(1147.34375 0)"/>
     <use xlink:href="#DejaVuSans-3" transform="translate(1186.546875 0)"/>
     <use xlink:href="#DejaVuSans-56" transform="translate(1218.328125 0)"/>
     <use xlink:href="#DejaVuSans-57" transform="translate(1270.421875 0)"/>
     <use xlink:href="#DejaVuSans-52" transform="translate(1309.625 0)"/>
     <use xlink:href="#DejaVuSans-53" transform="translate(1370.8125 0)"/>
     <use xlink:href="#DejaVuSans-56" transform="translate(1434.296875 0)"/>
     <use xlink:href="#DejaVuSans-3" transform="translate(1486.390625 0)"/>
     <use xlink:href="#DejaVuSans-44" transform="translate(1518.171875 0)"/>
     <use xlink:href="#DejaVuSans-57" transform="translate(1579.453125 0)"/>
     <use xlink:href="#DejaVuSans-3" transform="translate(1618.65625 0)"/>
     <use xlink:href="#DejaVuSans-14" transform="translate(1650.4375 0)"/>
     <use xlink:href="#DejaVuSans-11" transform="translate(1714.0625 0)"/>
     <use xlink:href="#DejaVuSans-17" transform="translate(1745.84375 0)"/>
     <use xlink:href="#DejaVuSans-15" transform="translate(1809.46875 0)"/>
     <use xlink:href="#DejaVuSans-3" transform="translate(1873.09375 0)"/>
     <use xlink:href="#DejaVuSans-56" transform="translate(1904.875 0)"/>
    </g>
   </g>
  </g>
  <g id="text_39">
   <!-- Close pursuit: supplied cutback path, native movement components -->
   <g transform="translate(171.494375 12.459595) scale(0.11 -0.11)">
    <defs>
     <path id="DejaVuSans-1d" d="M 750 794
L 1409 794
L 1409 0
L 750 0
L 750 794
z
M 750 3309
L 1409 3309
L 1409 2516
L 750 2516
L 750 3309
z
" transform="scale(0.015625)"/>
    </defs>
    <use xlink:href="#DejaVuSans-26"/>
    <use xlink:href="#DejaVuSans-4f" transform="translate(69.828125 0)"/>
    <use xlink:href="#DejaVuSans-52" transform="translate(97.609375 0)"/>
    <use xlink:href="#DejaVuSans-56" transform="translate(158.796875 0)"/>
    <use xlink:href="#DejaVuSans-48" transform="translate(210.890625 0)"/>
    <use xlink:href="#DejaVuSans-3" transform="translate(272.421875 0)"/>
    <use xlink:href="#DejaVuSans-53" transform="translate(304.203125 0)"/>
    <use xlink:href="#DejaVuSans-58" transform="translate(367.6875 0)"/>
    <use xlink:href="#DejaVuSans-55" transform="translate(431.0625 0)"/>
    <use xlink:href="#DejaVuSans-56" transform="translate(472.171875 0)"/>
    <use xlink:href="#DejaVuSans-58" transform="translate(524.265625 0)"/>
    <use xlink:href="#DejaVuSans-4c" transform="translate(587.640625 0)"/>
    <use xlink:href="#DejaVuSans-57" transform="translate(615.421875 0)"/>
    <use xlink:href="#DejaVuSans-1d" transform="translate(654.625 0)"/>
    <use xlink:href="#DejaVuSans-3" transform="translate(688.3125 0)"/>
    <use xlink:href="#DejaVuSans-56" transform="translate(720.09375 0)"/>
    <use xlink:href="#DejaVuSans-58" transform="translate(772.1875 0)"/>
    <use xlink:href="#DejaVuSans-53" transform="translate(835.5625 0)"/>
    <use xlink:href="#DejaVuSans-53" transform="translate(899.046875 0)"/>
    <use xlink:href="#DejaVuSans-4f" transform="translate(962.53125 0)"/>
    <use xlink:href="#DejaVuSans-4c" transform="translate(990.3125 0)"/>
    <use xlink:href="#DejaVuSans-48" transform="translate(1018.09375 0)"/>
    <use xlink:href="#DejaVuSans-47" transform="translate(1079.625 0)"/>
    <use xlink:href="#DejaVuSans-3" transform="translate(1143.109375 0)"/>
    <use xlink:href="#DejaVuSans-46" transform="translate(1174.890625 0)"/>
    <use xlink:href="#DejaVuSans-58" transform="translate(1229.875 0)"/>
    <use xlink:href="#DejaVuSans-57" transform="translate(1293.25 0)"/>
    <use xlink:href="#DejaVuSans-45" transform="translate(1332.453125 0)"/>
    <use xlink:href="#DejaVuSans-44" transform="translate(1395.9375 0)"/>
    <use xlink:href="#DejaVuSans-46" transform="translate(1457.21875 0)"/>
    <use xlink:href="#DejaVuSans-4e" transform="translate(1512.203125 0)"/>
    <use xlink:href="#DejaVuSans-3" transform="translate(1570.109375 0)"/>
    <use xlink:href="#DejaVuSans-53" transform="translate(1601.890625 0)"/>
    <use xlink:href="#DejaVuSans-44" transform="translate(1665.375 0)"/>
    <use xlink:href="#DejaVuSans-57" transform="translate(1726.65625 0)"/>
    <use xlink:href="#DejaVuSans-4b" transform="translate(1765.859375 0)"/>
    <use xlink:href="#DejaVuSans-f" transform="translate(1829.234375 0)"/>
    <use xlink:href="#DejaVuSans-3" transform="translate(1861.015625 0)"/>
    <use xlink:href="#DejaVuSans-51" transform="translate(1892.796875 0)"/>
    <use xlink:href="#DejaVuSans-44" transform="translate(1956.171875 0)"/>
    <use xlink:href="#DejaVuSans-57" transform="translate(2017.453125 0)"/>
    <use xlink:href="#DejaVuSans-4c" transform="translate(2056.65625 0)"/>
    <use xlink:href="#DejaVuSans-59" transform="translate(2084.4375 0)"/>
    <use xlink:href="#DejaVuSans-48" transform="translate(2143.625 0)"/>
    <use xlink:href="#DejaVuSans-3" transform="translate(2205.15625 0)"/>
    <use xlink:href="#DejaVuSans-50" transform="translate(2236.9375 0)"/>
    <use xlink:href="#DejaVuSans-52" transform="translate(2334.34375 0)"/>
    <use xlink:href="#DejaVuSans-59" transform="translate(2395.53125 0)"/>
    <use xlink:href="#DejaVuSans-48" transform="translate(2454.71875 0)"/>
    <use xlink:href="#DejaVuSans-50" transform="translate(2516.25 0)"/>
    <use xlink:href="#DejaVuSans-48" transform="translate(2613.65625 0)"/>
    <use xlink:href="#DejaVuSans-51" transform="translate(2675.1875 0)"/>
    <use xlink:href="#DejaVuSans-57" transform="translate(2738.5625 0)"/>
    <use xlink:href="#DejaVuSans-3" transform="translate(2777.765625 0)"/>
    <use xlink:href="#DejaVuSans-46" transform="translate(2809.546875 0)"/>
    <use xlink:href="#DejaVuSans-52" transform="translate(2864.53125 0)"/>
    <use xlink:href="#DejaVuSans-50" transform="translate(2925.71875 0)"/>
    <use xlink:href="#DejaVuSans-53" transform="translate(3023.125 0)"/>
    <use xlink:href="#DejaVuSans-52" transform="translate(3086.609375 0)"/>
    <use xlink:href="#DejaVuSans-51" transform="translate(3147.796875 0)"/>
    <use xlink:href="#DejaVuSans-48" transform="translate(3211.171875 0)"/>
    <use xlink:href="#DejaVuSans-51" transform="translate(3272.703125 0)"/>
    <use xlink:href="#DejaVuSans-57" transform="translate(3336.078125 0)"/>
    <use xlink:href="#DejaVuSans-56" transform="translate(3375.28125 0)"/>
   </g>
   <!-- Experimental / unwitnessed; synthetic clip, no contact or full-game replay -->
   <g transform="translate(156.301484 25.662603) scale(0.11 -0.11)">
    <defs>
     <path id="DejaVuSans-28" d="M 628 4666
L 3578 4666
L 3578 4134
L 1259 4134
L 1259 2753
L 3481 2753
L 3481 2222
L 1259 2222
L 1259 531
L 3634 531
L 3634 0
L 628 0
L 628 4666
z
" transform="scale(0.015625)"/>
     <path id="DejaVuSans-5b" d="M 3513 3500
L 2247 1797
L 3578 0
L 2900 0
L 1881 1375
L 863 0
L 184 0
L 1544 1831
L 300 3500
L 978 3500
L 1906 2253
L 2834 3500
L 3513 3500
z
" transform="scale(0.015625)"/>
     <path id="DejaVuSans-12" d="M 1625 4666
L 2156 4666
L 531 -594
L 0 -594
L 1625 4666
z
" transform="scale(0.015625)"/>
     <path id="DejaVuSans-5a" d="M 269 3500
L 844 3500
L 1563 769
L 2278 3500
L 2956 3500
L 3675 769
L 4391 3500
L 4966 3500
L 4050 0
L 3372 0
L 2619 2869
L 1863 0
L 1184 0
L 269 3500
z
" transform="scale(0.015625)"/>
     <path id="DejaVuSans-10" d="M 313 2009
L 1997 2009
L 1997 1497
L 313 1497
L 313 2009
z
" transform="scale(0.015625)"/>
    </defs>
    <use xlink:href="#DejaVuSans-28"/>
    <use xlink:href="#DejaVuSans-5b" transform="translate(63.1875 0)"/>
    <use xlink:href="#DejaVuSans-53" transform="translate(122.375 0)"/>
    <use xlink:href="#DejaVuSans-48" transform="translate(185.859375 0)"/>
    <use xlink:href="#DejaVuSans-55" transform="translate(247.390625 0)"/>
    <use xlink:href="#DejaVuSans-4c" transform="translate(288.5 0)"/>
    <use xlink:href="#DejaVuSans-50" transform="translate(316.28125 0)"/>
    <use xlink:href="#DejaVuSans-48" transform="translate(413.6875 0)"/>
    <use xlink:href="#DejaVuSans-51" transform="translate(475.21875 0)"/>
    <use xlink:href="#DejaVuSans-57" transform="translate(538.59375 0)"/>
    <use xlink:href="#DejaVuSans-44" transform="translate(577.796875 0)"/>
    <use xlink:href="#DejaVuSans-4f" transform="translate(639.078125 0)"/>
    <use xlink:href="#DejaVuSans-3" transform="translate(666.859375 0)"/>
    <use xlink:href="#DejaVuSans-12" transform="translate(698.640625 0)"/>
    <use xlink:href="#DejaVuSans-3" transform="translate(732.328125 0)"/>
    <use xlink:href="#DejaVuSans-58" transform="translate(764.109375 0)"/>
    <use xlink:href="#DejaVuSans-51" transform="translate(827.484375 0)"/>
    <use xlink:href="#DejaVuSans-5a" transform="translate(890.859375 0)"/>
    <use xlink:href="#DejaVuSans-4c" transform="translate(972.640625 0)"/>
    <use xlink:href="#DejaVuSans-57" transform="translate(1000.421875 0)"/>
    <use xlink:href="#DejaVuSans-51" transform="translate(1039.625 0)"/>
    <use xlink:href="#DejaVuSans-48" transform="translate(1103 0)"/>
    <use xlink:href="#DejaVuSans-56" transform="translate(1164.53125 0)"/>
    <use xlink:href="#DejaVuSans-56" transform="translate(1216.625 0)"/>
    <use xlink:href="#DejaVuSans-48" transform="translate(1268.71875 0)"/>
    <use xlink:href="#DejaVuSans-47" transform="translate(1330.25 0)"/>
    <use xlink:href="#DejaVuSans-1e" transform="translate(1393.734375 0)"/>
    <use xlink:href="#DejaVuSans-3" transform="translate(1427.421875 0)"/>
    <use xlink:href="#DejaVuSans-56" transform="translate(1459.203125 0)"/>
    <use xlink:href="#DejaVuSans-5c" transform="translate(1511.296875 0)"/>
    <use xlink:href="#DejaVuSans-51" transform="translate(1570.484375 0)"/>
    <use xlink:href="#DejaVuSans-57" transform="translate(1633.859375 0)"/>
    <use xlink:href="#DejaVuSans-4b" transform="translate(1673.0625 0)"/>
    <use xlink:href="#DejaVuSans-48" transform="translate(1736.4375 0)"/>
    <use xlink:href="#DejaVuSans-57" transform="translate(1797.96875 0)"/>
    <use xlink:href="#DejaVuSans-4c" transform="translate(1837.171875 0)"/>
    <use xlink:href="#DejaVuSans-46" transform="translate(1864.953125 0)"/>
    <use xlink:href="#DejaVuSans-3" transform="translate(1919.9375 0)"/>
    <use xlink:href="#DejaVuSans-46" transform="translate(1951.71875 0)"/>
    <use xlink:href="#DejaVuSans-4f" transform="translate(2006.703125 0)"/>
    <use xlink:href="#DejaVuSans-4c" transform="translate(2034.484375 0)"/>
    <use xlink:href="#DejaVuSans-53" transform="translate(2062.265625 0)"/>
    <use xlink:href="#DejaVuSans-f" transform="translate(2125.75 0)"/>
    <use xlink:href="#DejaVuSans-3" transform="translate(2157.53125 0)"/>
    <use xlink:href="#DejaVuSans-51" transform="translate(2189.3125 0)"/>
    <use xlink:href="#DejaVuSans-52" transform="translate(2252.6875 0)"/>
    <use xlink:href="#DejaVuSans-3" transform="translate(2313.875 0)"/>
    <use xlink:href="#DejaVuSans-46" transform="translate(2345.65625 0)"/>
    <use xlink:href="#DejaVuSans-52" transform="translate(2400.640625 0)"/>
    <use xlink:href="#DejaVuSans-51" transform="translate(2461.828125 0)"/>
    <use xlink:href="#DejaVuSans-57" transform="translate(2525.203125 0)"/>
    <use xlink:href="#DejaVuSans-44" transform="translate(2564.40625 0)"/>
    <use xlink:href="#DejaVuSans-46" transform="translate(2625.6875 0)"/>
    <use xlink:href="#DejaVuSans-57" transform="translate(2680.671875 0)"/>
    <use xlink:href="#DejaVuSans-3" transform="translate(2719.875 0)"/>
    <use xlink:href="#DejaVuSans-52" transform="translate(2751.65625 0)"/>
    <use xlink:href="#DejaVuSans-55" transform="translate(2812.84375 0)"/>
    <use xlink:href="#DejaVuSans-3" transform="translate(2853.953125 0)"/>
    <use xlink:href="#DejaVuSans-49" transform="translate(2885.734375 0)"/>
    <use xlink:href="#DejaVuSans-58" transform="translate(2920.9375 0)"/>
    <use xlink:href="#DejaVuSans-4f" transform="translate(2984.3125 0)"/>
    <use xlink:href="#DejaVuSans-4f" transform="translate(3012.09375 0)"/>
    <use xlink:href="#DejaVuSans-10" transform="translate(3039.875 0)"/>
    <use xlink:href="#DejaVuSans-4a" transform="translate(3075.953125 0)"/>
    <use xlink:href="#DejaVuSans-44" transform="translate(3139.4375 0)"/>
    <use xlink:href="#DejaVuSans-50" transform="translate(3200.71875 0)"/>
    <use xlink:href="#DejaVuSans-48" transform="translate(3298.125 0)"/>
    <use xlink:href="#DejaVuSans-3" transform="translate(3359.65625 0)"/>
    <use xlink:href="#DejaVuSans-55" transform="translate(3391.4375 0)"/>
    <use xlink:href="#DejaVuSans-48" transform="translate(3430.34375 0)"/>
    <use xlink:href="#DejaVuSans-53" transform="translate(3491.875 0)"/>
    <use xlink:href="#DejaVuSans-4f" transform="translate(3555.359375 0)"/>
    <use xlink:href="#DejaVuSans-44" transform="translate(3583.140625 0)"/>
    <use xlink:href="#DejaVuSans-5c" transform="translate(3644.421875 0)"/>
   </g>
  </g>
 </g>
 <defs>
  <clipPath id="p6822e6883e">
   <rect x="54.646334" y="50.524861" width="305.94351" height="203.474118"/>
  </clipPath>
  <clipPath id="p27e58d3c93">
   <rect x="411.05625" y="50.524861" width="305.94351" height="203.474118"/>
  </clipPath>
 </defs>
</svg>
