<svg xmlns="http://www.w3.org/2000/svg" width="64" height="32" viewBox="0 0 32 16">
<title>home_block</title><g shape-rendering="crispEdges">
<rect x="0" y="0" width="32" height="1" fill="#5D5D60"/>
<rect x="0" y="1" width="12" height="1" fill="#131316"/>
<rect x="12" y="1" width="5" height="1" fill="#18181B"/>
<rect x="17" y="1" width="5" height="1" fill="#1F1F22"/>
<rect x="22" y="1" width="5" height="1" fill="#27272A"/>
<rect x="27" y="1" width="5" height="1" fill="#313134"/>
<rect x="0" y="2" width="12" height="1" fill="#131316"/>
<rect x="12" y="2" width="5" height="1" fill="#18181B"/>
<rect x="17" y="2" width="5" height="1" fill="#1F1F22"/>
<rect x="22" y="2" width="5" height="1" fill="#27272A"/>
<rect x="27" y="2" width="5" height="1" fill="#313134"/>
<rect x="0" y="3" width="12" height="1" fill="#131316"/>
<rect x="12" y="3" width="5" height="1" fill="#18181B"/>
<rect x="17" y="3" width="5" height="1" fill="#1F1F22"/>
<rect x="22" y="3" width="5" height="1" fill="#27272A"/>
<rect x="27" y="3" width="5" height="1" fill="#313134"/>
<rect x="0" y="4" width="12" height="1" fill="#131316"/>
<rect x="12" y="4" width="5" height="1" fill="#18181B"/>
<rect x="17" y="4" width="5" height="1" fill="#1F1F22"/>
<rect x="22" y="4" width="5" height="1" fill="#27272A"/>
<rect x="27" y="4" width="5" height="1" fill="#313134"/>
<rect x="0" y="5" width="12" height="1" fill="#131316"/>
<rect x="12" y="5" width="5" height="1" fill="#18181B"/>
<rect x="17" y="5" width="5" height="1" fill="#1F1F22"/>
<rect x="22" y="5" width="5" height="1" fill="#27272A"/>
<rect x="27" y="5" width="5" height="1" fill="#313134"/>
<rect x="0" y="6" width="12" height="1" fill="#131316"/>
<rect x="12" y="6" width="5" height="1" fill="#18181B"/>
<rect x="17" y="6" width="5" height="1" fill="#1F1F22"/>
<rect x="22" y="6" width="5" height="1" fill="#27272A"/>
<rect x="27" y="6" width="5" height="1" fill="#313134"/>
<rect x="0" y="7" width="12" height="1" fill="#131316"/>
<rect x="12" y="7" width="5" height="1" fill="#18181B"/>
<rect x="17" y="7" width="5" height="1" fill="#1F1F22"/>
<rect x="22" y="7" width="5" height="1" fill="#27272A"/>
<rect x="27" y="7" width="5" height="1" fill="#313134"/>
<rect x="0" y="8" width="12" height="1" fill="#131316"/>
<rect x="12" y="8" width="5" height="1" fill="#18181B"/>
<rect x="17" y="8" width="5" height="1" fill="#1F1F22"/>
<rect x="22" y="8" width="5" height="1" fill="#27272A"/>
<rect x="27" y="8" width="5" height="1" fill="#313134"/>
<rect x="0" y="9" width="12" height="1" fill="#131316"/>
<rect x="12" y="9" width="5" height="1" fill="#18181B"/>
<rect x="17" y="9" width="5" height="1" fill="#1F1F22"/>
<rect x="22" y="9" width="5" height="1" fill="#27272A"/>
<rect x="27" y="9" width="5" height="1" fill="#313134"/>
<rect x="0" y="10" width="12" height="1" fill="#131316"/>
<rect x="12" y="10" width="5" height="1" fill="#18181B"/>
<rect x="17" y="10" width="5" height="1" fill="#1F1F22"/>
<rect x="22" y="10" width="5" height="1" fill="#27272A"/>
<rect x="27" y="10" width="5" height="1" fill="#313134"/>
<rect x="0" y="11" width="12" height="1" fill="#131316"/>
<rect x="12" y="11" width="5" height="1" fill="#18181B"/>
<rect x="17" y="11" width="5" height="1" fill="#1F1F22"/>
<rect x="22" y="11" width="5" height="1" fill="#27272A"/>
<rect x="27" y="11" width="5" height="1" fill="#313134"/>
<rect x="0" y="12" width="12" height="1" fill="#131316"/>
<rect x="12" y="12" width="5" height="1" fill="#18181B"/>
<rect x="17" y="12" width="5" height="1" fill="#1F1F22"/>
<rect x="22" y="12" width="5" height="1" fill="#27272A"/>
<rect x="27" y="12" width="5" height="1" fill="#313134"/>
<rect x="0" y="13" width="12" height="1" fill="#131316"/>
<rect x="12" y="13" width="5" height="1" fill="#18181B"/>
<rect x="17" y="13" width="5" height="1" fill="#1F1F22"/>
<rect x="22" y="13" width="5" height="1" fill="#27272A"/>
<rect x="27" y="13" width="5" height="1" fill="#313134"/>
<rect x="0" y="14" width="12" height="1" fill="#131316"/>
<rect x="12" y="14" width="5" height="1" fill="#18181B"/>
<rect x="17" y="14" width="5" height="1" fill="#1F1F22"/>
<rect x="22" y="14" width="5" height="1" fill="#27272A"/>
<rect x="27" y="14" width="5" height="1" fill="#313134"/>
<rect x="0" y="15" width="32" height="1" fill="#18181B"/>
</g></svg>
